<?xml version="1.0" standalone="no"?>
<!DOCTYPE svg PUBLIC "-//W3C//DTD SVG 20010904//EN"
 "http://www.w3.org/TR/2001/REC-SVG-20010904/DTD/svg10.dtd">
<svg version="1.0" xmlns="http://www.w3.org/2000/svg"
 width="1152.000000pt" height="1152.000000pt" viewBox="0 0 1152.000000 1152.000000"
 preserveAspectRatio="xMidYMid meet">
<metadata>
Created by potrace 1.14, written by Peter Selinger 2001-2017
</metadata>
<g transform="translate(0.000000,1152.000000) scale(0.100000,-0.100000)"
fill="#000000" stroke="none">
<path d="M4280 9573 c-30 -8 -59 -16 -65 -17 -13 -2 -134 -62 -160 -78 -11 -7
-52 -39 -92 -70 -40 -32 -76 -58 -79 -58 -4 0 -12 -6 -18 -14 -6 -7 -69 -60
-141 -116 -71 -57 -131 -107 -133 -111 -2 -5 -10 -9 -17 -9 -7 0 -15 -3 -17
-8 -1 -4 -73 -62 -158 -130 -85 -68 -168 -134 -185 -147 -111 -88 -363 -287
-406 -320 -28 -22 -56 -45 -63 -50 -23 -21 -73 -61 -100 -80 -15 -11 -41 -31
-56 -45 -46 -41 -70 -60 -76 -60 -3 0 -11 -6 -18 -12 -12 -12 -51 -45 -140
-115 -23 -18 -50 -42 -61 -53 -12 -11 -26 -20 -32 -20 -6 0 -13 -4 -15 -9 -1
-5 -32 -33 -68 -61 -120 -96 -259 -227 -375 -355 -118 -131 -226 -279 -317
-435 -63 -107 -140 -260 -131 -260 3 0 1 -6 -5 -12 -17 -22 -104 -251 -117
-309 -2 -9 -13 -52 -24 -95 -23 -85 -52 -220 -50 -232 1 -4 0 -9 -1 -12 -6
-16 -15 -83 -27 -210 -15 -151 -8 -524 13 -655 4 -22 6 -48 6 -57 0 -10 4 -20
9 -23 5 -4 7 -10 5 -14 -3 -4 -1 -25 5 -47 5 -21 12 -55 15 -74 3 -19 14 -66
26 -104 11 -38 21 -76 23 -85 5 -23 64 -190 82 -231 48 -108 117 -247 131
-262 8 -10 12 -18 9 -18 -9 0 154 -255 172 -270 4 -3 15 -18 25 -35 11 -16 25
-37 32 -45 12 -13 96 -118 116 -145 4 -5 18 -22 30 -38 13 -15 31 -37 40 -50
10 -12 101 -128 204 -257 102 -129 196 -248 207 -263 12 -15 30 -38 41 -50 10
-12 30 -38 44 -57 15 -19 38 -49 52 -65 14 -17 39 -48 55 -69 17 -21 36 -45
42 -52 7 -7 13 -17 13 -22 0 -6 4 -12 8 -14 5 -1 53 -59 107 -128 55 -69 101
-127 105 -130 3 -3 32 -41 65 -84 33 -43 64 -84 70 -90 6 -6 24 -29 40 -51 17
-22 40 -51 53 -65 12 -14 22 -28 22 -31 0 -3 11 -19 25 -35 14 -16 29 -33 33
-39 15 -21 77 -101 87 -112 5 -6 21 -26 35 -44 99 -130 230 -228 354 -264 141
-41 301 -8 476 98 72 44 133 88 138 100 2 4 10 7 17 7 7 0 15 4 17 9 2 5 45
41 96 80 51 39 98 76 105 81 7 6 46 36 87 68 41 31 82 64 92 72 9 8 37 31 63
50 38 29 260 204 340 269 11 9 37 28 57 43 20 15 42 33 50 40 41 39 169 138
178 138 5 0 10 4 10 8 0 4 24 26 52 47 29 22 60 47 70 55 9 8 23 20 30 25 43
33 154 120 158 125 3 3 50 41 105 85 55 43 102 83 103 87 2 4 8 8 13 8 5 0 17
8 27 18 23 21 53 46 112 92 25 19 54 42 65 52 11 9 171 136 355 282 184 146
342 271 350 278 8 7 53 44 100 81 109 87 147 118 174 141 11 10 40 32 64 49
23 17 42 34 42 39 0 4 5 8 11 8 5 0 24 13 42 30 18 16 35 30 39 30 4 0 13 6
20 13 7 7 35 30 63 52 27 22 56 46 65 52 8 7 78 62 155 124 77 61 142 115 143
120 2 5 8 9 13 9 20 0 146 112 204 182 22 26 88 148 81 148 -3 0 1 15 9 34 22
53 34 190 22 251 -3 11 -8 38 -12 60 -7 42 -63 168 -77 173 -4 2 -8 9 -8 15 0
7 -13 26 -28 42 -15 17 -39 46 -52 65 -13 19 -29 40 -35 45 -6 6 -36 42 -66
80 -29 39 -58 75 -64 82 -13 16 -23 28 -65 83 -19 25 -37 47 -40 50 -3 3 -21
25 -40 50 -67 90 -163 174 -240 213 -41 21 -84 39 -95 41 -11 3 -39 9 -62 14
-60 14 -199 7 -268 -12 -79 -23 -216 -101 -255 -146 -3 -3 -23 -19 -45 -35
-22 -17 -42 -32 -45 -35 -3 -3 -33 -28 -68 -55 -35 -28 -72 -57 -82 -65 -10
-8 -52 -42 -94 -74 l-75 -59 32 -45 c18 -24 38 -47 45 -49 6 -3 12 -10 12 -15
0 -6 12 -25 28 -43 34 -40 45 -54 107 -135 28 -36 53 -67 56 -70 14 -12 89
-113 89 -119 0 -4 -23 -25 -52 -46 -28 -22 -56 -44 -62 -50 -6 -6 -47 -39 -91
-73 -130 -102 -135 -106 -150 -120 -8 -7 -34 -28 -58 -46 -25 -19 -55 -43 -68
-54 -13 -12 -85 -69 -159 -127 -74 -59 -136 -111 -138 -116 -2 -5 -10 -9 -17
-9 -7 0 -15 -3 -17 -8 -1 -4 -23 -23 -48 -42 -25 -19 -52 -40 -60 -47 -61 -49
-192 -152 -219 -173 -18 -14 -38 -30 -44 -35 -7 -6 -32 -26 -57 -45 -25 -19
-52 -41 -60 -47 -34 -28 -189 -150 -220 -173 -18 -14 -38 -30 -44 -35 -6 -6
-56 -46 -111 -88 -55 -43 -116 -91 -135 -107 -35 -29 -146 -118 -165 -132 -5
-4 -42 -34 -81 -65 -39 -32 -88 -71 -109 -88 -21 -16 -43 -34 -49 -40 -6 -5
-45 -37 -86 -70 -81 -65 -100 -80 -133 -109 -34 -28 -129 -90 -160 -104 -34
-15 -96 -16 -132 -2 -48 18 -95 64 -189 185 -52 66 -104 130 -115 142 -12 12
-21 25 -21 28 0 3 -8 13 -17 24 -17 18 -51 57 -125 145 -18 22 -44 52 -58 67
-39 43 -71 81 -115 134 -22 27 -50 59 -62 71 -13 13 -23 27 -23 31 0 5 -9 14
-20 21 -11 7 -20 17 -20 22 0 6 -14 25 -31 43 -65 68 -329 434 -329 456 0 6
-4 11 -10 11 -5 0 -10 4 -10 9 0 5 -19 40 -42 77 -98 161 -193 397 -223 549
-26 138 -27 354 -2 470 26 117 69 238 129 364 18 36 34 68 37 71 6 5 23 34 45
75 13 24 76 115 91 132 5 6 21 26 35 44 76 101 187 212 425 424 61 54 292 246
374 310 35 28 74 60 87 73 13 12 27 22 31 22 5 0 31 20 58 45 28 25 53 45 57
45 4 0 13 6 20 13 7 7 42 35 78 62 35 28 71 55 80 62 8 7 33 26 55 42 22 17
46 36 54 43 8 7 71 56 140 110 69 53 135 106 146 118 12 11 25 20 29 20 5 0
16 8 25 18 9 9 48 42 86 73 39 31 83 68 98 83 15 14 30 26 33 26 3 0 18 12 34
28 15 15 54 50 86 77 195 169 306 308 336 423 17 65 11 190 -13 233 -4 9 -6
19 -3 21 2 3 -2 11 -11 18 -8 7 -15 19 -15 28 0 17 -60 125 -72 130 -4 2 -8 8
-8 13 0 14 -59 87 -99 123 -19 17 -39 36 -46 41 -29 26 -139 83 -174 90 -10 2
-35 8 -54 13 -53 15 -194 12 -257 -5z"/>
<path d="M7808 9545 c-2 -1 -27 -5 -55 -9 -88 -10 -209 -62 -323 -139 -43 -29
-222 -164 -265 -199 -11 -9 -67 -53 -125 -97 -58 -45 -118 -92 -135 -105 -69
-55 -104 -82 -135 -106 -51 -39 -152 -120 -180 -144 -14 -12 -52 -42 -85 -66
-32 -25 -72 -57 -87 -72 -16 -16 -32 -28 -36 -28 -4 0 -22 -12 -39 -27 -17
-16 -45 -39 -63 -53 -18 -14 -40 -32 -49 -40 -9 -8 -57 -46 -106 -85 -50 -38
-95 -74 -101 -80 -6 -5 -26 -21 -44 -35 -46 -34 -111 -87 -136 -110 -12 -11
-26 -20 -32 -20 -6 0 -12 -4 -14 -8 -2 -7 -58 -54 -188 -159 -53 -43 -102 -81
-130 -103 -18 -14 -44 -36 -59 -49 -14 -13 -43 -35 -63 -49 -21 -13 -38 -29
-38 -33 0 -5 -5 -9 -11 -9 -6 0 -16 -6 -23 -12 -7 -7 -30 -26 -51 -43 -20 -16
-42 -34 -49 -40 -6 -5 -29 -23 -51 -40 -43 -32 -74 -57 -113 -92 -14 -13 -28
-23 -31 -23 -3 0 -20 -13 -38 -28 -44 -39 -54 -46 -193 -156 -69 -54 -130
-105 -136 -112 -6 -8 -16 -14 -22 -14 -6 0 -12 -3 -14 -8 -1 -4 -46 -41 -98
-82 -52 -41 -97 -77 -100 -80 -3 -3 -30 -24 -60 -48 -30 -23 -62 -47 -70 -54
-14 -13 -95 -77 -165 -133 -358 -281 -405 -323 -459 -403 -117 -178 -133 -390
-43 -582 12 -25 51 -83 86 -130 36 -47 69 -89 73 -95 4 -5 33 -42 65 -82 32
-39 69 -86 83 -104 14 -18 30 -37 35 -43 6 -6 23 -29 40 -51 38 -52 129 -143
180 -182 69 -52 196 -113 268 -129 4 -1 9 -3 12 -4 9 -4 19 -6 80 -15 108 -15
194 -12 300 11 17 3 36 7 43 7 6 0 12 4 12 9 0 5 5 6 10 3 6 -4 16 -3 23 3 7
5 32 17 57 26 46 18 150 78 173 99 6 7 32 28 57 47 25 19 50 39 56 45 7 5 24
19 40 30 15 11 32 25 38 30 6 6 32 27 58 46 l46 35 -28 35 c-16 19 -36 42 -44
52 -9 9 -16 22 -16 27 0 6 -4 10 -8 10 -4 0 -25 25 -47 55 -22 30 -43 55 -47
55 -5 0 -8 6 -8 14 0 8 -4 16 -8 18 -4 2 -53 59 -108 128 -54 69 -107 134
-117 145 -20 23 -21 22 103 121 41 33 84 67 95 76 11 10 49 40 85 68 36 28 72
56 80 63 8 7 38 30 65 52 28 22 52 43 53 48 2 4 8 7 13 7 6 0 20 9 32 21 12
11 43 37 70 57 26 20 47 40 47 44 0 4 5 8 11 8 11 0 121 89 127 103 2 4 8 7
13 7 9 0 44 27 81 63 10 9 20 17 23 17 2 0 53 39 112 86 59 47 123 98 142 113
44 34 93 73 108 86 21 17 36 29 128 100 100 77 122 95 139 110 6 6 40 33 76
60 36 27 67 52 70 56 5 6 37 31 170 132 30 23 61 49 70 57 9 8 34 29 55 46
118 93 222 177 240 192 11 9 61 50 110 90 50 40 105 85 123 100 119 98 206
124 288 86 44 -21 138 -119 194 -204 8 -12 22 -30 31 -39 8 -9 29 -34 45 -56
16 -21 41 -53 56 -70 14 -16 68 -79 120 -140 51 -60 102 -120 113 -131 11 -12
38 -43 60 -70 22 -26 50 -58 61 -70 12 -12 32 -37 45 -56 13 -18 28 -37 34
-43 7 -5 29 -32 51 -60 21 -27 41 -52 44 -55 3 -3 29 -36 57 -75 29 -38 57
-75 63 -82 5 -7 10 -17 10 -23 0 -5 5 -10 10 -10 6 0 10 -4 10 -10 0 -5 18
-33 39 -61 22 -29 45 -64 53 -78 7 -14 16 -28 19 -31 13 -12 128 -223 166
-305 221 -483 178 -911 -139 -1385 -39 -58 -75 -108 -79 -111 -5 -3 -20 -20
-34 -39 -34 -47 -137 -151 -246 -250 -51 -47 -105 -97 -121 -111 -15 -15 -49
-44 -74 -65 -26 -22 -52 -44 -58 -49 -6 -6 -54 -45 -106 -88 -52 -43 -104 -86
-115 -95 -11 -10 -60 -49 -110 -87 -49 -38 -92 -72 -95 -75 -6 -7 -99 -79
-136 -105 -15 -11 -35 -28 -43 -37 -8 -9 -18 -15 -23 -12 -4 3 -8 1 -8 -4 0
-4 -42 -39 -92 -78 -51 -38 -98 -74 -104 -80 -7 -5 -44 -35 -83 -65 -39 -29
-71 -57 -71 -61 0 -5 -5 -8 -10 -8 -10 0 -128 -94 -325 -259 -361 -302 -481
-453 -490 -618 -4 -59 12 -149 34 -198 5 -11 15 -35 23 -53 7 -17 16 -32 20
-32 5 0 8 -9 8 -19 0 -11 3 -21 8 -23 4 -1 23 -27 42 -57 78 -124 208 -219
348 -254 111 -29 272 -15 376 32 25 12 56 25 68 30 22 8 166 109 193 134 7 6
25 21 40 31 14 11 36 28 48 39 12 11 38 31 57 46 19 14 42 34 51 43 9 10 21
18 26 18 5 0 19 10 30 23 11 12 30 29 42 37 23 15 30 20 131 102 30 24 163
129 295 233 132 104 242 192 245 195 3 3 23 19 45 36 22 16 45 34 51 39 6 6
26 21 44 35 18 14 72 57 120 95 48 39 104 84 125 100 22 17 49 39 61 50 12 11
35 29 50 40 16 11 36 28 46 38 10 9 21 17 24 17 3 0 11 6 18 13 7 6 32 28 56
47 135 109 195 159 249 205 78 68 261 254 261 265 0 5 4 10 9 10 5 0 46 46 90
103 44 56 85 107 91 114 5 7 10 16 10 22 0 5 3 11 8 13 10 4 82 116 82 127 0
5 4 11 8 13 33 13 226 433 257 558 2 8 13 47 25 85 11 39 22 79 25 90 25 119
35 167 40 205 4 25 9 56 11 70 8 54 18 167 19 212 0 27 2 48 5 48 13 0 -1 459
-15 510 -2 8 -6 35 -9 60 -3 25 -7 54 -10 65 -2 11 -9 49 -16 85 -6 36 -14 72
-17 80 -7 19 -10 28 -16 63 -11 57 -97 296 -140 387 -24 52 -46 100 -48 105
-19 47 -170 297 -194 321 -8 8 -15 19 -15 24 0 5 -6 15 -12 22 -7 7 -33 40
-58 73 -25 33 -51 66 -57 75 -19 23 -231 291 -258 325 -90 115 -166 212 -177
225 -7 7 -41 50 -76 95 -34 44 -68 87 -75 95 -7 8 -30 38 -52 65 -22 28 -42
52 -46 55 -3 3 -18 23 -35 45 -16 22 -34 46 -41 55 -7 8 -64 80 -127 160 -64
80 -119 150 -123 155 -5 6 -24 30 -43 55 -19 25 -39 50 -45 56 -13 14 -51 63
-109 139 -25 33 -51 67 -59 75 -7 8 -29 36 -47 63 -18 26 -36 47 -40 47 -3 0
-14 15 -25 33 -10 17 -21 34 -24 37 -3 3 -28 32 -56 65 -137 166 -279 254
-432 268 -28 3 -53 4 -55 2z"/>
</g>
</svg>
