<svg width="108" height="48" viewBox="0 0 108 48" fill="none" xmlns="http://www.w3.org/2000/svg">
<g clip-path="url(#clip0_41_4345)">
<path d="M45.434 20.1849C45.5984 20.3058 45.7641 20.4254 45.9285 20.5462C45.9655 20.8289 46.0012 21.1128 46.0382 21.3956C46.0132 21.7484 46.2181 21.7907 46.491 21.7399C46.5709 21.7399 46.6507 21.7399 46.7306 21.7399C46.8116 21.7399 46.8915 21.7411 46.9725 21.7423C46.9821 21.787 46.9928 21.8317 47.0023 21.8764C47.0834 22.0021 47.1644 22.1265 47.2454 22.2522C47.05 22.6461 46.7985 23.023 47.0774 23.4942C47.1406 23.6006 47.0905 23.7757 47.0929 23.9195C47.1239 24.0838 47.1561 24.2494 47.187 24.4137C47.2943 24.839 47.4016 25.2643 47.5279 25.7681C47.771 25.3984 47.9736 25.0927 48.175 24.787C48.3812 24.6469 48.5886 24.5055 48.7947 24.3654C48.927 24.3436 49.0593 24.3219 49.1928 24.2989C49.1225 24.2155 49.051 24.1322 48.9806 24.05C49.1904 23.8507 49.3989 23.6513 49.6087 23.4507C49.6862 23.4495 49.7648 23.4471 49.8423 23.4459C50.4262 22.8635 51.0734 22.3984 51.8981 22.2196C52.022 22.193 52.1126 22.0057 52.2187 21.8934C52.4153 21.8499 52.6119 21.8051 52.8086 21.7617C53.128 21.6046 53.4486 21.4475 53.7679 21.2905L54.3555 21.2554C54.4711 21.2107 54.5855 21.166 54.7011 21.1213C55.0539 21.0053 55.4078 20.8893 55.7201 20.7866C55.5377 20.0847 55.3637 19.4153 55.1897 18.7472C55.1897 18.665 55.1921 18.5828 55.1933 18.5007L55.1957 18.4958C55.2863 18.3666 55.378 18.2373 55.4686 18.108C55.3828 18.0742 55.297 18.0416 55.2112 18.0077C55.1623 17.8954 55.1146 17.7842 55.0658 17.6718L54.9657 17.0496C54.9442 17.023 54.9359 16.994 54.9418 16.9602C54.9454 16.7077 54.9502 16.454 54.9538 16.2014C55.0562 16.1688 55.1599 16.135 55.2624 16.1024C55.2541 16.0661 55.2469 16.0299 55.2386 15.9936L54.837 15.9598C54.7678 15.8801 54.6987 15.8015 54.6284 15.7218C54.6236 15.6783 54.6189 15.6348 54.6141 15.5913C54.6832 15.2965 54.7535 15.0029 54.8227 14.7081C54.943 14.638 55.0634 14.5691 55.1826 14.4991C55.6366 14.4725 55.7046 14.1716 55.6688 13.7971C55.8643 13.7488 56.0597 13.7004 56.2552 13.6521C56.4625 13.8297 56.6461 13.8986 56.7366 13.5434L56.7426 13.5397C56.8177 13.5023 56.8939 13.466 56.969 13.4286L56.9881 13.4177C57.0608 13.3742 57.1335 13.3307 57.2074 13.286C57.3861 13.3513 57.5649 13.4177 57.7425 13.483C57.8474 13.6207 57.9534 13.7584 58.0559 13.8925C57.9463 14.0798 57.8342 14.2381 57.7568 14.4133C57.6984 14.5438 57.6865 14.696 57.6531 14.8386C57.8116 14.841 57.9689 14.8386 58.1274 14.8458C58.3789 14.8555 58.6291 14.87 58.8806 14.8821C59.001 15.0802 59.1213 15.2784 59.2417 15.4765C59.2441 15.5164 59.2441 15.5563 59.2417 15.5961C59.2822 15.7157 59.3228 15.8366 59.3633 15.9562C59.3966 15.9707 59.43 15.9815 59.4658 15.9876C59.5218 16.1398 59.5778 16.2933 59.635 16.4455L59.5838 16.4515C59.5838 16.5277 59.5838 16.6038 59.5838 16.6799C59.7852 17.2985 59.9913 17.9147 60.1868 18.5357C60.2452 18.7194 60.2726 18.9139 60.3131 19.1024C60.3834 19.3851 60.4549 19.6678 60.5252 19.9493C60.5372 20.1535 60.5491 20.3589 60.561 20.5631C60.561 20.6356 60.5622 20.7081 60.5634 20.7806C60.5979 21.0657 60.6313 21.3497 60.6659 21.6348C60.7076 21.717 60.7493 21.8003 60.7922 21.8825C60.7982 22.0504 60.8029 22.2184 60.8089 22.3863C60.8756 22.5784 60.9436 22.7693 61.0103 22.9614C60.6837 23.11 60.6718 23.2719 60.99 23.4483C61.0425 23.6102 61.108 23.7685 61.1426 23.934C61.1938 24.1733 61.2224 24.4173 61.2606 24.659C61.226 24.781 61.1914 24.903 61.1569 25.0263L61.3952 26.934C61.4179 27.1056 61.4477 27.276 61.462 27.4487C61.4822 27.6855 61.493 27.9236 61.5073 28.1604C61.5073 28.2292 61.5073 28.2969 61.5073 28.3658C61.5263 28.3597 61.5609 28.3513 61.5609 28.3501C61.5466 28.286 61.5287 28.222 61.5108 28.1579C61.655 27.7085 61.9959 27.2905 61.7301 26.7733C61.8135 26.4338 61.897 26.0955 61.9804 25.756C61.9804 25.6267 61.9804 25.4987 61.9804 25.3694C61.9875 25.3295 61.9816 25.2909 61.9649 25.2546C62.0388 24.7302 62.1127 24.2047 62.1877 23.6803C62.2485 23.5184 62.3081 23.3577 62.3689 23.1958C62.3975 23.1161 62.4273 23.0375 62.4559 22.9578C62.5775 22.518 62.7002 22.0782 62.8218 21.6384C62.8599 21.5563 62.8992 21.4753 62.9374 21.3931C62.904 21.3533 62.8706 21.3146 62.8361 21.2747C62.8635 21.195 62.8921 21.1153 62.9195 21.0343C63.0172 20.789 63.1149 20.5438 63.2127 20.2973C63.2377 20.2623 63.2639 20.226 63.2889 20.191L63.2949 20.1813C63.3342 20.1813 63.3747 20.1837 63.4141 20.1849C63.4963 20.0665 63.5785 19.9481 63.6596 19.8309C63.7359 19.8285 63.8133 19.8261 63.8896 19.8237C64.0088 19.7838 64.1279 19.7427 64.2471 19.7029C64.327 19.5796 64.4068 19.4576 64.4878 19.3343C64.5665 19.3356 64.6452 19.338 64.7238 19.3392C64.7632 19.3392 64.8025 19.3392 64.8418 19.3416C64.8597 19.3501 64.8764 19.3597 64.8942 19.3682C64.8776 19.3585 64.8609 19.3488 64.8454 19.3392C64.8454 19.2594 64.8454 19.1797 64.8454 19.1C65.1624 19.3017 65.4806 19.5023 65.7976 19.7041C65.8369 19.7439 65.8763 19.7838 65.9156 19.8237C65.9954 19.9046 66.0753 19.9856 66.1539 20.0665C66.1539 20.1064 66.1539 20.1463 66.1539 20.1861C66.3089 20.307 66.4638 20.4278 66.6175 20.5486C66.6283 20.7915 66.639 21.0331 66.6497 21.276C66.6437 21.5985 66.639 21.9223 66.633 22.2449C66.6271 22.3658 66.6211 22.4854 66.614 22.6062C66.5472 22.8297 66.4805 23.052 66.4137 23.2755C66.4697 23.3045 66.527 23.3335 66.583 23.3625C66.6771 23.2296 66.7713 23.0967 66.8666 22.965C67.3731 22.4793 67.8808 21.9948 68.3873 21.5091C68.4743 21.3871 68.5613 21.2651 68.6495 21.143C69.0094 20.9461 69.3693 20.748 69.7292 20.551C69.8031 20.5498 69.8782 20.5486 69.9521 20.5462C70.1535 20.5027 70.3537 20.458 70.5551 20.4145C70.5575 20.3819 70.5611 20.3505 70.567 20.319C70.6469 20.3577 70.7267 20.3976 70.8066 20.4362C70.9663 20.4737 71.1248 20.5112 71.2845 20.5486H71.3345L71.3846 20.5462C71.5133 20.5462 71.6408 20.5462 71.7683 20.545C71.8839 20.5933 71.9983 20.6416 72.1139 20.6912C72.2796 20.7588 72.4441 20.8253 72.6097 20.8929H72.6002C72.6455 20.9364 72.6919 20.9799 72.7372 21.0246C72.9255 21.1588 73.1138 21.2929 73.3021 21.4258C73.407 21.5345 73.5119 21.6432 73.6156 21.752C73.7526 21.9078 73.8897 22.0649 74.0267 22.2208C74.0613 22.309 74.097 22.3972 74.1316 22.4842L74.1364 22.4902C74.1673 22.5277 74.1971 22.5639 74.2281 22.6014C74.2412 22.6847 74.2543 22.7681 74.2674 22.8515C74.2102 22.8793 74.153 22.9058 74.0947 22.9336C74.1435 22.9844 74.1924 23.0363 74.2412 23.0871C74.2579 23.1197 74.2651 23.1535 74.2615 23.1898C74.3306 23.516 74.4009 23.8434 74.47 24.1696C74.47 24.2131 74.47 24.2554 74.47 24.2989C74.4021 24.4693 74.3342 24.6396 74.2674 24.81C74.302 24.8776 74.3378 24.9441 74.3723 25.0118C74.3282 25.0553 74.2841 25.0975 74.24 25.141L73.8277 25.2486L74.0148 25.5047C74.0148 25.5772 74.0148 25.6509 74.0148 25.7234C73.7788 26.0206 73.5441 26.3166 73.3081 26.6138C73.2437 26.6525 73.1794 26.6924 73.115 26.731C73.0244 26.8144 72.9339 26.8966 72.8433 26.9799C72.7623 27.0126 72.68 27.0464 72.599 27.079C72.5168 27.1612 72.4357 27.2421 72.3535 27.3243L72.3571 27.3207C72.2748 27.3593 72.1926 27.398 72.1104 27.4366C71.6384 27.6396 71.1653 27.8426 70.6934 28.0456C70.5134 28.1833 70.1022 27.6408 70.0844 28.2582C69.9795 28.2727 69.8746 28.2872 69.7697 28.3029C69.6375 28.3368 69.5052 28.3706 69.3729 28.4044L69.3681 28.4068C69.3252 28.4105 69.2823 28.4153 69.2394 28.4189L69.2418 28.4153C68.9522 28.3247 68.6626 28.2341 68.3742 28.1434L68.2741 28.28C68.3277 28.4068 68.3825 28.5349 68.4362 28.6618C68.5673 29.3323 68.6733 30.015 69.2501 30.4813C69.3371 30.5514 69.4229 30.6215 69.5099 30.6904C69.6625 30.7 69.815 30.7097 69.9688 30.7182C70.0057 30.7182 70.0439 30.7182 70.0808 30.7182C70.1571 30.7097 70.2333 30.7012 70.3096 30.6928C70.4729 30.6602 70.6362 30.6287 70.7994 30.5961C71.2034 30.3871 71.6074 30.1781 72.0103 29.9691C72.0424 29.9352 72.0746 29.9002 72.108 29.8664C72.1425 29.847 72.1783 29.835 72.2176 29.8301L72.5239 30.0512C72.5811 29.9352 72.6383 29.8192 72.6967 29.702C72.9792 29.4701 73.2604 29.2381 73.5429 29.0073C73.8813 29.0254 74.1757 28.9868 74.1328 28.5252C74.3008 28.28 74.4689 28.0347 74.6381 27.7882C74.6357 27.6722 74.6345 27.5563 74.6321 27.4403C74.7108 27.2759 74.7883 27.1116 74.8669 26.9473C74.8967 26.8531 74.9253 26.7588 74.9551 26.6646C74.9956 26.5172 75.035 26.3698 75.0755 26.2224C75.1184 26.139 75.1613 26.0557 75.2042 25.9723C75.1637 25.814 75.1231 25.6557 75.0838 25.4987C75.1184 24.8958 75.1529 24.2929 75.1875 23.69C75.2304 23.29 75.2721 22.8889 75.315 22.489C75.3591 22.3259 75.4044 22.1616 75.4485 21.9985C75.4092 21.9187 75.3698 21.8378 75.3305 21.758C75.3305 21.6771 75.3305 21.5973 75.3305 21.5164C75.2912 21.5164 75.2519 21.5164 75.2125 21.5164C75.2125 21.4354 75.2125 21.3557 75.2125 21.2747C75.9145 21.3581 75.8072 20.8543 75.8084 20.429C75.9324 20.3867 76.0551 20.3432 76.179 20.3009C76.2112 20.307 76.2434 20.3106 76.2756 20.313C76.4758 20.6779 76.676 21.0428 76.8762 21.4076C76.9573 21.5659 77.0371 21.7254 77.1181 21.8837C77.316 22.3271 77.515 22.7705 77.7128 23.2139C77.8797 23.7347 78.0453 24.2566 78.2122 24.7774C78.2515 25.4612 78.2908 26.1463 78.3302 26.8301C78.2491 27.3207 78.1681 27.8112 78.0871 28.3017C77.801 28.7766 77.5138 29.2514 77.2278 29.7262C77.1932 29.7298 77.1587 29.7347 77.1241 29.7419C76.912 29.4447 76.6986 29.1463 76.4293 28.7693C76.3411 29.0774 76.2887 29.2574 76.2863 29.2659C76.5354 29.6102 76.7058 29.8458 76.8762 30.0802C76.85 30.1008 76.8214 30.1116 76.788 30.1104C76.7368 30.1515 76.6855 30.1914 76.6343 30.2325C76.6319 30.2747 76.6093 30.3001 76.5699 30.3098C76.3554 30.0524 76.1397 29.7963 76.005 29.6344C75.8072 30.0416 75.6582 30.3605 75.4962 30.6747C75.3281 31.0021 75.147 31.3235 74.973 31.6473C74.9408 31.6618 74.9074 31.6702 74.8717 31.6714C74.5082 31.6279 74.3556 31.8043 74.3711 32.1608C74.2949 32.1934 74.2186 32.226 74.1423 32.2598C74.1328 32.3166 74.1244 32.3746 74.1149 32.4314C73.9671 32.4592 73.8205 32.487 73.6728 32.5148C73.5917 32.6416 73.5119 32.7673 73.4308 32.8942C73.2366 32.9969 73.0423 33.1008 72.8481 33.2035C72.7587 33.2554 72.6693 33.3074 72.5799 33.3593C72.5334 33.398 72.487 33.4378 72.4393 33.4765C72.3714 33.5116 72.3034 33.5466 72.2343 33.5828C71.636 33.8946 71.0259 34.1374 70.3335 33.9646C70.2059 34.0069 70.0784 34.0492 69.9509 34.0915C69.5207 34.0504 69.0916 34.0093 68.6614 33.9671C68.5041 33.8052 68.3468 33.6432 68.1883 33.4813C68.025 33.4813 67.8629 33.4838 67.6996 33.485L67.6925 33.4789C67.6222 33.4379 67.5519 33.3968 67.4816 33.3557C67.4577 33.3291 67.4434 33.2989 67.4375 33.2639C67.3624 33.1745 67.2873 33.0863 67.2122 32.9969C67.1753 32.9944 67.1395 32.9908 67.1038 32.986C67.0597 32.9521 67.0168 32.9183 66.9727 32.8857C66.8154 32.7226 66.6592 32.5595 66.5019 32.3952C66.4221 32.3142 66.3422 32.2333 66.2624 32.1535L66.2612 32.1523C66.2564 32.0641 66.2529 31.9771 66.2409 31.7548C66.1778 31.9372 66.1611 31.988 66.1432 32.0387C65.9811 31.8539 65.8191 31.6702 65.6558 31.4854C65.5438 31.4685 65.4305 31.4528 65.3185 31.4358C65.2685 31.6726 65.2184 31.9107 65.1672 32.1475C65.1219 32.1656 65.0754 32.1849 65.0301 32.2031C65.0516 32.2296 65.0718 32.255 65.0933 32.2816C65.0956 33.1914 65.0134 34.0758 64.3913 34.8068C64.3389 34.8394 64.2864 34.8708 64.234 34.9034C63.9897 34.7923 63.7466 34.6823 63.5094 34.5748C63.2842 34.7258 63.041 34.8889 62.7979 35.0508C62.5572 34.808 62.3176 34.5651 62.0769 34.3211C61.8898 33.253 62.0281 32.139 61.6288 31.1024C61.6264 31.0565 61.624 31.0118 61.6217 30.9658C61.5823 31.0782 61.5418 31.1894 61.5025 31.3017C61.3821 31.3368 61.2629 31.3706 61.1426 31.4056L61.2892 30.9828C61.2343 30.9501 61.1807 30.9175 61.1259 30.8849C61.0198 31.0758 60.9138 31.2667 60.8077 31.4576C60.5634 31.5446 60.3143 31.6231 60.0759 31.7234C59.8638 31.8128 59.6612 31.9276 59.4538 32.0303C59.4205 32.104 59.3871 32.1789 59.3549 32.2526C59.1988 32.3807 59.0439 32.5087 58.8878 32.6356C58.8055 32.7008 58.7233 32.7649 58.6411 32.8301C58.5243 32.8458 58.4087 32.8615 58.2919 32.8772C58.0797 32.9896 57.8676 33.1032 57.6769 33.2047C57.4243 32.8446 57.2038 32.5293 56.9249 32.1306C56.8308 32.4556 56.7617 32.6984 56.6913 32.9401C56.739 32.9074 56.7867 32.8748 56.8344 32.8422C57.037 33.0452 57.2396 33.2494 57.4433 33.4524L57.4302 33.4681C57.3051 33.4741 57.1812 33.4801 57.056 33.4862C56.913 33.4838 56.77 33.4801 56.627 33.4777C56.5448 33.5176 56.4637 33.5575 56.3815 33.5973L56.3767 33.5998C56.2993 33.642 56.223 33.6843 56.1455 33.7266V33.7218C56.1038 33.7617 56.0621 33.8003 56.0204 33.8402C55.9834 33.8801 55.9465 33.9199 55.9107 33.9598C55.763 34.0637 55.4853 34.1749 55.49 34.2703C55.5139 34.7137 55.2612 34.5506 55.0443 34.5434C54.7357 34.5325 54.427 34.5567 54.1171 34.5663L54.1147 34.5712C54.0289 34.5325 53.9431 34.4938 53.8585 34.454C53.8144 34.489 53.7691 34.524 53.725 34.5591C53.669 34.5591 53.6142 34.5591 53.5582 34.5591L53.2924 34.46C53.2412 34.46 53.1888 34.4624 53.1375 34.4636C52.9862 34.4552 52.8348 34.4467 52.6834 34.4395C52.6417 34.4407 52.6 34.4419 52.5595 34.4431C52.2473 34.4781 51.935 34.5216 51.6228 34.5373C51.5787 34.5397 51.5274 34.3996 51.4798 34.3259L51.2509 34.1857C51.1365 34.1869 51.0233 34.1882 50.9089 34.1894C50.7063 34.1157 50.5025 34.0432 50.2999 33.9695C50.2165 33.8462 50.1319 33.7218 50.0485 33.5985C49.5741 33.2687 49.101 32.9377 48.6267 32.6078C48.585 32.5764 48.5445 32.5438 48.5027 32.5124L48.5051 32.5148C48.4741 32.4725 48.442 32.4314 48.411 32.3891C48.355 32.2804 48.299 32.1716 48.2441 32.0629C48.1428 31.9771 48.0403 31.8913 47.939 31.8056C47.8949 31.9179 47.8497 32.0315 47.8056 32.1439C47.7257 32.464 47.6459 32.7842 47.5648 33.1044C47.5255 33.189 47.4862 33.2723 47.4468 33.3569C47.4087 33.4415 47.3718 33.5248 47.3336 33.6082C47.5219 34.0951 47.3277 34.3875 46.8688 34.5434C46.7413 34.7089 46.6126 34.8732 46.4851 35.0387C46.4553 35.1281 46.4243 35.2163 46.3945 35.3058C46.3457 35.3686 46.2956 35.4326 46.2467 35.4954C46.2003 35.5474 46.155 35.5981 46.1085 35.6501L46.0143 35.7661L46.006 35.7733C45.9238 35.7419 45.8415 35.7117 45.7593 35.6803C45.7605 35.7443 45.7629 35.8072 45.7641 35.8712C45.571 36.0403 45.3791 36.2083 45.1861 36.3774C44.9024 36.4644 44.4925 36.1116 44.3304 36.6263C44.2589 36.6239 44.1874 36.6215 44.1159 36.6191C43.9133 36.7363 43.7095 36.8535 43.5069 36.9707C43.3805 36.9719 43.253 36.9731 43.1267 36.9755C43.0445 36.9828 42.9634 36.9888 42.8812 36.996C42.824 36.9574 42.7668 36.9187 42.7096 36.8801C42.5809 36.9163 42.4522 36.9538 42.3235 36.99L42.3258 36.9864C42.2663 36.9888 42.2067 36.9924 42.1471 36.9948C42.0839 36.9477 42.0196 36.9006 41.9564 36.8535C41.8408 36.8015 41.7252 36.7508 41.6108 36.6988C41.4904 36.7556 41.3689 36.8124 41.2485 36.8692C41.0864 36.8257 40.9243 36.7822 40.7622 36.7399L40.7599 36.7351C40.7217 36.6964 40.6836 36.6565 40.6455 36.6179L40.6419 36.6155C40.5644 36.6082 40.4858 36.601 40.4083 36.5949L40.3916 36.6118C40.3177 36.6855 40.2426 36.7604 40.1688 36.8341C40.0091 36.7242 39.8482 36.6155 39.6885 36.5055C39.586 36.3219 39.4871 36.108 39.3345 36.4717C38.7291 36.427 38.4431 35.9715 38.1499 35.5257C38.1046 35.4471 38.0605 35.3698 38.0152 35.2913L38.0188 35.2949C37.9056 34.9022 37.6732 35.0097 37.4325 35.1523C37.4015 35.1692 37.3681 35.1777 37.3324 35.1765C37.243 35.1294 37.1536 35.081 37.0642 35.0339C36.9081 34.9058 36.7508 34.7766 36.5947 34.6485C36.5398 34.4238 36.485 34.199 36.4302 33.9731C36.3718 33.8873 36.3134 33.8003 36.255 33.7145C36.2443 33.5949 36.2336 33.4765 36.2228 33.3569C36.0607 32.8784 35.8987 32.4 35.7378 31.9215C36.4624 31.4455 35.6675 31.3331 35.5388 31.0613C35.5411 30.9767 35.5423 30.8921 35.5447 30.8076C35.5566 30.7484 35.5685 30.6892 35.5805 30.63C35.5233 30.6457 35.4649 30.6602 35.4077 30.6759C35.3588 30.8378 35.329 31.0081 35.2587 31.1592C34.9298 31.8575 34.5853 32.5486 34.2576 33.2482C34.1694 33.4379 34.1539 33.6662 34.049 33.8438C33.8512 34.1785 33.6117 34.4878 33.3888 34.8068C33.3292 34.8756 33.2696 34.9457 33.21 35.0146C33.191 35.1463 33.1719 35.278 33.1528 35.4109C33.1099 35.4507 33.067 35.4894 33.0229 35.5293C32.9812 35.6428 32.9407 35.7552 32.899 35.8676C32.8513 35.9546 32.8049 36.0416 32.7572 36.1285C32.6869 36.2433 32.6166 36.3581 32.545 36.4717C32.2376 36.8692 31.9206 37.2606 31.6262 37.6666C31.457 37.8998 31.3306 38.1644 31.1686 38.4048C31.0041 38.6489 30.8301 38.8881 30.6442 39.1153C30.55 39.2288 30.4177 39.311 30.3033 39.4076C30.2187 39.485 30.1329 39.5623 30.0483 39.6408C29.6848 40.0987 29.4036 40.7778 28.9352 40.959C28.381 41.1741 28.3608 41.6199 28.0855 41.9461C28.0235 42.0198 27.89 42.0307 27.7887 42.0706C27.7101 42.1153 27.6302 42.1612 27.5516 42.2059L27.3192 42.3774C27.2286 42.5804 27.1392 42.7822 27.0486 42.9852C26.9426 43.0806 26.8377 43.1749 26.7316 43.2703C26.7185 43.3066 26.7066 43.344 26.6935 43.3803C26.6911 43.4201 26.6887 43.46 26.6852 43.4987C26.5731 43.5434 26.4623 43.5869 26.3503 43.6316C26.268 43.7016 26.1858 43.7741 26.1036 43.8466C26.0285 43.8539 25.9546 43.8623 25.8795 43.8696C25.7985 43.8986 25.7186 43.9276 25.6376 43.9566C25.547 44.0037 25.4564 44.0508 25.3659 44.0979C25.2872 44.0629 25.2074 44.0279 25.1287 43.9928C25.0215 44.0351 24.913 44.0774 24.8057 44.1197C24.6103 44.1161 24.4148 44.1124 24.2206 44.11C24.1729 44.0665 24.1264 44.0242 24.0788 43.9807C23.9179 43.9433 23.757 43.907 23.5949 43.8696C23.4412 43.901 23.2886 43.9312 23.1349 43.9626C22.6999 43.2812 22.5724 43.2365 21.8156 43.5023C21.7763 43.541 21.737 43.5796 21.6964 43.6183C21.4974 43.4962 21.2972 43.3742 21.0982 43.2522C21.0207 43.2486 20.9444 43.2461 20.867 43.2425C20.8121 43.2546 20.7573 43.2655 20.7025 43.2776C20.6322 43.2413 20.5619 43.2051 20.4928 43.1688C20.5416 42.6529 20.1877 42.5176 19.7991 42.4149C19.7801 42.3944 19.7717 42.3702 19.7765 42.3412C19.9612 41.1463 18.891 40.7451 18.3428 40.0142L18.344 40.019C18.1319 39.7907 17.9078 39.572 17.7124 39.3291C17.5515 39.1285 17.4252 38.8978 17.2833 38.6803C17.2059 38.6803 17.1284 38.6791 17.0509 38.6779C17.0343 38.6863 17.0164 38.702 16.9997 38.702C16.9842 38.702 16.9544 38.6815 16.9556 38.6767C17.0235 38.3927 17.095 38.11 17.1654 37.8261C17.1654 37.7415 17.1642 37.6581 17.163 37.5736C16.9544 37.1628 16.7721 36.7411 16.2632 36.5961C16.1416 36.5611 16.0046 36.3545 15.9879 36.2119C15.9152 35.6283 15.6327 35.5099 15.1417 35.7516C14.9427 35.7673 14.7437 35.7842 14.5447 35.7999L14.5482 35.7576C14.4577 35.6948 14.3671 35.632 14.2765 35.5704L14.2646 35.5559C14.2062 35.4652 14.1478 35.3746 14.0894 35.2828C13.7414 35.1076 13.2564 35.1088 13.198 34.5651C13.2099 34.5277 13.2206 34.4902 13.229 34.4515C13.2325 34.2921 13.2361 34.1314 13.2385 33.9719C13.2385 33.9284 13.2373 33.8861 13.2361 33.8426C13.3863 33.7955 13.5352 33.7484 13.6854 33.7012C13.8117 33.7061 13.9393 33.7109 14.0656 33.7157C14.2062 33.7109 14.3826 33.7604 14.4803 33.6928C14.7783 33.4862 14.677 32.9425 14.2384 32.638C13.919 32.4157 13.7021 32.2188 13.6401 31.7838C13.5889 31.4274 13.3005 31.1193 12.8965 31.5494C12.583 31.7306 12.2696 31.9119 11.9025 32.1245C11.8036 31.7572 11.7428 31.5289 11.6821 31.3005C11.6821 31.2184 11.6809 31.1362 11.6797 31.0528C11.7226 30.8462 11.7667 30.6396 11.7857 30.549C11.3746 30.2433 11.0516 29.9799 10.706 29.7528C10.5272 29.6356 10.3091 29.5824 10.1077 29.5015C10.0732 29.4979 10.0458 29.4834 10.0231 29.4568C9.90156 29.226 10.5177 28.9928 10.0195 28.7633L10.0148 28.7584C9.97664 28.5192 9.93851 28.2788 9.90037 28.0395C9.74067 27.9985 9.57979 27.9574 9.42009 27.9175C9.33905 27.9187 9.25801 27.9199 9.17697 27.9211C9.05422 27.5998 8.93027 27.2784 8.80752 26.957V26.9654C8.77415 26.5595 8.74079 26.1523 8.70742 25.7464C8.19019 25.3597 7.86484 25.4805 7.7552 26.1004C7.3071 25.669 6.82324 25.3923 6.19757 25.7319C6.08673 25.6944 5.9759 25.6569 5.86506 25.6195C5.90916 25.5929 5.95325 25.5663 5.99735 25.5397C5.94253 25.5277 5.88651 25.5156 5.83169 25.5035L5.36929 25.2377C5.3538 25.1894 5.33711 25.1398 5.32162 25.0915L5.23939 25.1471C4.76507 25.2208 4.29075 25.2945 3.81642 25.367C3.65792 25.4177 3.50061 25.4685 3.3421 25.518C3.26702 25.5132 3.19313 25.5083 3.11805 25.5035C2.95478 25.576 2.79032 25.6485 2.62704 25.721C2.58891 25.7343 2.55077 25.7427 2.51144 25.7451L1.90722 25.2631C1.8667 25.222 1.82499 25.1809 1.78447 25.1398L1.65695 25.0903C1.58187 25.0287 1.5056 24.9671 1.43052 24.9054C1.19455 24.7411 0.957386 24.5756 0.721417 24.4113C0.688048 24.2917 0.653487 24.172 0.620117 24.0524C0.647528 23.6888 0.67613 23.3239 0.703541 22.9602C0.747636 22.878 0.791731 22.7959 0.835826 22.7137L0.833443 22.7174C0.875154 22.6835 0.916866 22.6485 0.958578 22.6147C1.02651 22.5663 1.09444 22.5168 1.16237 22.4685C1.21481 22.3984 1.26605 22.3283 1.31849 22.2582C1.39 22.2389 1.4615 22.2184 1.53301 22.199C1.73799 22.135 1.94417 22.0722 2.14915 22.0081C2.18133 21.9912 2.21589 21.9852 2.25164 21.99L2.38393 21.7472C2.43755 21.7363 2.49118 21.7242 2.54481 21.7121C2.52694 21.6819 2.50906 21.6529 2.49118 21.6227C2.53409 21.3835 2.57699 21.143 2.6187 20.9038C2.74026 20.87 2.86301 20.835 2.98457 20.8011C3.15976 20.8084 3.38024 20.7492 3.49941 20.835C3.75326 21.0198 3.994 21.0585 4.14058 20.7939C4.26453 20.5679 4.37178 20.2212 4.28359 20.0158C4.19898 19.8176 3.86409 19.7149 3.62574 19.6014C3.46724 19.5252 3.28251 19.5035 3.10971 19.4564C3.08349 19.3694 3.05608 19.2812 3.02986 19.1942C3.0537 19.1688 3.06442 19.1386 3.06085 19.1036C3.38024 18.3605 4.01068 18.1285 4.73766 17.9993C5.10591 17.934 5.48251 17.7915 5.80309 17.5945C6.56463 17.1269 7.28088 16.5832 8.04122 16.112C9.00655 15.5128 10.0017 14.9642 10.9765 14.3795C12.8226 13.2715 14.7365 12.3049 16.7637 11.5945C17.4538 11.3529 18.2034 11.29 18.9161 11.11C19.4929 10.9638 20.0542 10.634 20.6286 10.6171C21.7703 10.582 22.9144 10.1869 24.0692 10.6618C24.6198 10.8889 25.3837 11.2127 25.8021 10.9965C26.4635 10.6545 26.7793 11.2695 27.2965 11.2272C27.6159 11.2018 27.9854 11.5377 28.2988 11.76C29.2689 12.4463 30.2235 13.1555 31.1805 13.8623C31.1984 13.8756 31.1602 13.9662 31.1471 14.0218L31.3497 14.1342L31.358 14.1451C31.395 14.1789 31.4319 14.2115 31.4701 14.2453C31.8276 14.6151 32.1851 14.9836 32.5415 15.3533C32.5415 15.3944 32.5462 15.433 32.5582 15.4717C32.5415 15.543 32.4902 15.6614 32.5141 15.6807C33.16 16.1857 33.5211 16.8321 33.5712 17.6694C33.5783 17.7818 33.8035 17.8809 33.9275 17.986C33.8846 18.0077 33.8417 18.0283 33.7988 18.05C33.8953 18.2747 33.9918 18.5007 34.0896 18.7254C34.0896 18.7713 34.0896 18.8184 34.0896 18.8644C34.1206 18.9066 34.1503 18.9477 34.1813 18.99C34.1599 19.0456 34.1086 19.1084 34.1206 19.1543C34.3065 19.8527 34.4852 20.5534 34.7009 21.2421C34.7593 21.4306 34.9607 21.5683 35.0501 21.752C35.2182 22.0975 35.565 22.5603 35.4577 22.7959C35.1717 23.4242 35.4267 23.8084 35.7747 24.2264C35.851 24.2856 35.9285 24.3448 36.0047 24.404V24.4064C36.0464 24.4475 36.087 24.4874 36.1275 24.5285C36.4028 24.7762 36.2669 25.019 36.1203 25.2631C36.0167 25.4781 35.9142 25.692 35.8105 25.907C35.8403 25.9481 35.8701 25.9892 35.8999 26.0303C36.0464 25.9433 36.193 25.8575 36.3408 25.7705L36.3253 25.7439C36.4528 25.4987 36.5804 25.2522 36.7079 25.0069C36.7186 24.8076 36.7305 24.6094 36.7412 24.4101C36.9701 24.2095 37.2001 24.0089 37.4289 23.8096C37.4682 23.8096 37.5075 23.8096 37.5481 23.8108C37.6279 23.8905 37.7066 23.9715 37.7864 24.0512C37.9056 23.9304 38.0248 23.8096 38.1439 23.6888C38.1439 23.6489 38.1439 23.609 38.1439 23.5679C38.1046 23.5679 38.0653 23.5655 38.026 23.5643C37.9854 23.5256 37.9461 23.4858 37.9056 23.4471C37.8257 23.4471 37.7471 23.4471 37.6672 23.4459C37.6279 23.4459 37.5874 23.4459 37.5481 23.4459C37.5075 23.5269 37.4682 23.6066 37.4277 23.6875C37.3562 23.4471 37.2835 23.2079 37.212 22.9675C37.2418 22.9252 37.2728 22.8829 37.3026 22.8406C37.3455 22.8068 37.3884 22.7717 37.4301 22.7379L37.4444 22.727C37.5087 22.6714 37.5743 22.6171 37.6386 22.5615H37.6303C37.7614 22.5748 37.8925 22.5869 38.0248 22.6002C38.1439 22.6002 38.2631 22.6002 38.3823 22.6002C38.5694 22.3754 38.7565 22.1519 38.9901 21.8704C39.2058 21.845 39.5466 21.7786 39.8863 21.7774C39.9959 21.7774 40.1056 21.9465 40.2152 22.0383C40.2152 22.0383 40.2093 22.0202 40.2081 22.0202C39.9387 22.2836 39.6801 22.547 40.1783 22.8394C40.2188 22.8805 40.2593 22.9215 40.301 22.9638C40.2986 23.0375 40.2975 23.1112 40.2951 23.1849C40.4166 23.2707 40.537 23.3565 40.6586 23.4423C40.7384 23.4423 40.8171 23.4447 40.8969 23.4459C40.9017 23.4882 40.9076 23.5293 40.9124 23.5716C40.8624 23.6489 40.8123 23.7262 40.7622 23.8035C40.6848 23.812 40.6085 23.8192 40.531 23.8277C40.4238 23.5836 40.3058 23.5462 40.1699 23.8072C39.9137 24.05 39.8911 24.2941 40.1699 24.5369C40.052 24.8172 39.9328 25.0975 39.8148 25.3778L39.9125 25.7403C39.9209 25.9385 39.9292 26.1378 39.9364 26.336C39.9614 26.4979 39.9864 26.661 40.0102 26.8229C39.9864 26.9848 39.9626 27.1479 39.9387 27.3098C39.9387 27.4777 39.9387 27.6469 39.9387 27.8148C39.9387 27.8474 39.9387 27.8801 39.9387 27.9127C39.9816 28.2353 40.0257 28.5567 40.0686 28.8793C40.1568 29.3746 40.245 29.87 40.3416 30.4173C40.3916 30.6046 40.456 30.8426 40.5191 31.0794C40.5156 31.1108 40.5132 31.1422 40.5132 31.1737C40.5167 31.2184 40.5203 31.2631 40.5239 31.3078C40.6395 31.6134 40.7205 31.9385 40.8814 32.2163C40.9839 32.3915 41.1877 32.5607 41.3784 32.6187C41.8479 32.76 42.4367 32.2623 42.563 31.669C42.6369 31.5023 42.7096 31.3368 42.7835 31.17C42.8228 31.0081 42.8609 30.845 42.9003 30.6831C42.905 30.6457 42.9003 30.6094 42.8836 30.5756C42.8979 30.5345 42.9122 30.4922 42.9253 30.4511C42.9575 30.3303 42.9897 30.2095 43.0218 30.0875C43.0302 30.0476 43.0373 30.0077 43.0457 29.9679C43.0457 29.8494 43.0457 29.7323 43.0457 29.6138C43.0457 29.3287 43.0469 29.0436 43.048 28.7584C43.0469 28.6002 43.0457 28.4431 43.0445 28.2848C43.0397 28.1132 43.0314 27.9417 43.0302 27.7701C43.0266 27.0548 43.0254 26.3408 43.023 25.6255C43.0206 25.541 43.0171 25.4576 43.0147 25.373C42.9706 25.2546 42.9277 25.1374 42.8836 25.019L42.6631 24.5357C42.6262 24.2131 42.5892 23.8905 42.5511 23.5679C42.5821 23.3263 42.6142 23.0834 42.6452 22.8418C42.5225 22.5603 42.3997 22.2788 42.277 21.9973C42.5165 21.0863 42.9634 20.3311 43.8394 19.9155C43.9466 19.8648 44.0885 19.8756 44.2136 19.8817C44.4889 19.8938 44.7642 19.9191 45.0395 19.9397C45.0872 19.9397 45.1348 19.9397 45.1825 19.9385L45.1789 19.9336C45.2611 20.0158 45.3434 20.0991 45.4256 20.1813L45.434 20.1849ZM25.0477 33.1056C25.0906 33.1479 25.1347 33.1902 25.1776 33.2325C25.2157 33.2325 25.2503 33.2433 25.2824 33.2651C25.3921 33.3738 25.485 33.5212 25.6161 33.5828C26.0905 33.8051 26.2323 34.2014 26.2335 34.6859L26.2299 34.6908C26.1596 34.7729 26.0905 34.8551 26.0201 34.9372C26.0917 34.9336 26.162 34.9312 26.2335 34.9276C26.3896 34.8925 26.6268 34.9119 26.6899 34.814C26.9974 34.3428 27.2584 33.8414 27.5337 33.3497C27.5528 33.3158 27.5528 33.2723 27.5623 33.2337C27.5623 33.0754 27.5623 32.9171 27.5623 32.7588C27.4753 32.5969 27.3883 32.435 27.3013 32.2731C27.2715 32.1898 27.2405 32.1076 27.2107 32.0242C27.2417 31.9119 27.2739 31.7995 27.3049 31.6871L27.3525 31.6581L27.4086 31.6606C27.5718 31.663 27.7351 31.6654 27.8984 31.6678C27.9889 31.6279 28.0795 31.5881 28.1701 31.5482C28.2178 31.5252 28.2654 31.5011 28.3131 31.4781C28.2666 31.4225 28.2201 31.3658 28.1737 31.3102C28.2046 31.1978 28.2368 31.0855 28.2678 30.9731C28.3167 30.9417 28.3655 30.9103 28.4132 30.8801L28.4347 30.8583C28.6182 30.3219 28.8005 29.7854 28.9841 29.2478C29.0186 29.1221 29.052 28.9965 29.0866 28.8708C29.1485 28.7222 29.3058 28.495 29.2582 28.4358C28.9757 28.0855 29.3023 27.9803 29.4632 27.8051C29.4524 27.4016 29.4417 26.9969 29.431 26.5933C29.431 26.3517 29.431 26.11 29.431 25.8684C29.4715 25.6666 29.5108 25.4648 29.5513 25.2631C29.4048 24.8184 29.2594 24.3738 29.1128 23.928C28.8959 23.0375 28.4656 22.309 27.6219 21.8849C26.9771 21.5599 26.3801 21.485 25.7294 21.5635C25.3969 21.6034 25.0489 21.5103 24.6317 21.4705C24.2992 21.5756 23.8309 21.6614 23.4209 21.8692C22.9895 22.0879 22.6141 22.4225 22.2315 22.6944C21.9074 22.5953 21.5904 22.4999 21.2245 22.3887C21.5498 23.7516 21.5153 23.7214 20.6286 24.2796C20.5154 24.2083 20.401 24.1358 20.2556 24.044C20.2723 24.6118 19.8635 24.52 19.5525 24.6046C19.3761 24.6529 19.0734 24.8051 19.0817 24.8825C19.133 25.3392 19.1973 25.814 19.3749 26.2321C19.5393 26.6187 19.8504 26.9425 20.1424 27.3581C20.2949 27.2977 20.5845 27.1841 20.8741 27.0693H20.8729C21.0243 27.2615 21.3353 27.4958 21.2984 27.6396C21.1423 28.2582 21.6762 28.5458 21.8335 29.0013C21.8526 29.1873 21.8049 29.4314 21.9038 29.5486C22.1755 29.8712 22.4997 30.1527 22.8238 30.4246C22.9311 30.5152 23.1027 30.5285 23.2445 30.5768C23.3303 30.7278 23.4173 30.8788 23.5031 31.0299C23.4745 31.5434 23.4471 32.0581 23.4173 32.6018C23.5341 32.5124 23.6926 32.3903 23.8511 32.2671H23.9095H23.9679C24.5316 31.9252 24.6353 32.5498 24.9416 32.7455C24.9774 32.7818 25.0119 32.818 25.0477 32.8543C25.0477 32.905 25.0477 32.9546 25.0489 33.0041L25.0548 33.0005C25.0548 33.0355 25.0548 33.0706 25.0548 33.1044L25.0489 33.1008L25.0477 33.1056ZM52.687 26.4568L52.6715 26.4701C52.637 26.5087 52.6036 26.5462 52.569 26.5849L52.5631 26.5921C52.4511 26.6791 52.339 26.7661 52.227 26.8531L52.2246 26.8446C52.1793 26.8821 52.1352 26.9183 52.0899 26.9558C51.8969 27.0778 51.7038 27.1998 51.5107 27.3219L51.3749 27.6408C50.9137 28.0383 51.4249 28.3343 51.3987 28.6618C51.3511 28.9095 51.3034 29.1584 51.2557 29.406C51.189 29.6344 51.2116 29.7902 51.5072 29.7286C51.7014 29.7347 51.8945 29.7395 52.0888 29.7455L52.6906 29.957C52.8825 29.992 53.0743 30.0283 53.2662 30.0633C53.4343 30.114 53.6023 30.1636 53.7715 30.2143C53.9646 30.2542 54.1577 30.2953 54.3507 30.3352C54.5521 30.2228 54.7523 30.1104 54.9538 29.9969C55.0467 29.8688 55.1385 29.7419 55.2314 29.6138C55.3363 29.5281 55.4412 29.4423 55.5449 29.3553C55.6211 29.2961 55.6974 29.2357 55.7737 29.1765C55.8225 28.9578 55.8714 28.7403 55.9203 28.5216C55.9918 28.4395 56.0645 28.3573 56.136 28.2751C56.1431 28.2896 56.1479 28.3053 56.1574 28.3162C56.1634 28.3235 56.1765 28.3235 56.1872 28.3271C56.1705 28.3102 56.1527 28.2933 56.136 28.2764C56.1336 28.1978 56.1324 28.1193 56.13 28.0408L56.1729 28.0432C56.2015 28.0118 56.2301 27.9803 56.2587 27.9501C56.3851 27.7375 56.5114 27.5236 56.6377 27.311C57.0103 26.9042 57.002 26.512 56.6127 26.1342C56.5495 26.0726 56.5376 25.9578 56.5019 25.8684C56.4995 25.785 56.4983 25.7029 56.4959 25.6195H56.4935C56.9464 25.4757 56.7426 25.2522 56.4959 25.1833C56.2826 25.1229 56.0204 25.2377 55.7796 25.2751C55.6628 25.3114 55.5449 25.3476 55.4281 25.3839C55.0121 25.1761 54.7869 25.4225 54.595 25.7451V25.7476C54.477 25.7911 54.3591 25.8345 54.2411 25.878C54.2387 25.9155 54.2304 25.9517 54.2184 25.9868C53.9527 26.0254 53.6869 26.0653 53.4211 26.104L53.4068 26.0919C53.3687 26.0859 53.3306 26.0798 53.2924 26.0726C53.1423 26.168 52.9921 26.2647 52.8419 26.3601L52.6882 26.4556L52.687 26.4568ZM61.5049 29.1281C61.4965 29.1463 61.4882 29.1644 61.481 29.1825C61.4906 29.1656 61.5013 29.1499 61.5108 29.133C61.5108 29.0907 61.5132 29.0484 61.5144 29.0061C61.5013 28.8865 61.4882 28.7657 61.4751 28.6461C61.4429 28.6545 61.4119 28.663 61.3797 28.6714C61.4203 28.7874 61.4608 28.9034 61.5013 29.0194C61.5061 29.0557 61.5073 29.0931 61.5061 29.1294L61.5049 29.1281ZM70.9246 25.2655C71.0032 25.0637 71.0831 24.8619 71.1617 24.6602C71.1999 24.4548 71.2392 24.2506 71.2773 24.0452C71.2773 23.9739 71.2749 23.9026 71.2737 23.8325L71.1605 23.5667V22.9687C70.9091 23.1221 70.7374 23.2272 70.5658 23.3323C70.486 23.4532 70.4073 23.574 70.3275 23.6948C70.2095 23.8603 70.0927 24.0258 69.9747 24.1914C69.8913 24.3037 69.8079 24.4149 69.7233 24.5273C69.4504 25.0093 69.1786 25.4902 68.9057 25.9723C68.8628 26.139 68.8211 26.3058 68.7782 26.4737C68.7782 26.5136 68.7782 26.5546 68.7782 26.5945C68.9009 26.6634 69.0237 26.7335 69.1465 26.8023C69.1429 26.6924 69.1393 26.5824 69.1357 26.4725C69.1357 26.4326 69.1357 26.3915 69.1357 26.3517C69.0976 26.2369 69.0595 26.1221 69.0213 26.0085C69.2156 25.9203 69.4086 25.8309 69.6029 25.7427C69.9282 25.7161 70.4002 25.9203 70.3275 25.2679L70.3311 25.2619C70.5289 25.2232 70.7267 25.1833 70.9246 25.1447C70.9246 25.1845 70.9246 25.2244 70.9246 25.2643C70.9162 25.2824 70.9067 25.2993 70.8983 25.3174C70.9079 25.3005 70.9174 25.2836 70.9269 25.2667L70.9246 25.2655ZM49.2536 25.2039C49.1761 25.2486 49.0974 25.2933 49.02 25.338C49.1022 25.6557 49.1844 25.9723 49.2965 26.4036C49.4812 26.319 49.648 26.2417 49.8161 26.1644C49.629 25.8442 49.4407 25.524 49.2536 25.2039ZM42.3842 35.7033C42.0517 35.493 41.78 35.3203 41.5083 35.1475L41.4499 35.2707C41.5691 35.5534 41.6871 35.8374 41.7657 36.0246C41.9254 35.9413 42.0899 35.8567 42.383 35.7033H42.3842ZM52.0399 30.8269C52.3057 30.7508 52.5702 30.6747 52.8956 30.5816C52.4808 30.2651 52.1889 30.2083 52.0399 30.8269ZM38.1916 29.4918C37.8198 29.6529 37.765 29.8543 38.0272 30.0959C38.0784 29.9099 38.1201 29.7576 38.1916 29.4918ZM50.0699 24.0379C50.0127 24.0089 49.9555 23.9811 49.8983 23.9521C49.8387 24.0754 49.7779 24.1986 49.7183 24.3207C49.7755 24.3497 49.8328 24.3774 49.8888 24.4064L50.0699 24.0379ZM61.9077 29.8519C61.897 29.7866 61.8862 29.7202 61.8755 29.6549C61.7647 29.6755 61.6526 29.6924 61.5454 29.725C61.5335 29.7286 61.5513 29.8313 61.5549 29.8881C61.6729 29.876 61.7897 29.8639 61.9077 29.8519ZM36.1251 26.5148C36.0798 26.4737 36.0429 26.4133 36.0071 26.4145C35.9714 26.4157 35.9034 26.4942 35.9118 26.5124C35.9356 26.5679 35.988 26.609 36.0298 26.6561C36.0584 26.6138 36.087 26.5704 36.1251 26.5148ZM40.0067 33.688C39.9733 33.6735 39.9399 33.659 39.9066 33.6445C39.8923 33.6783 39.8601 33.7194 39.8696 33.7435C39.8792 33.7677 39.9304 33.7749 39.9638 33.7894C39.9781 33.7556 39.9924 33.7218 40.0067 33.688ZM61.2248 30.4258C61.1914 30.4113 61.1509 30.3774 61.1271 30.3871C61.1032 30.3968 61.0961 30.4487 61.0818 30.4826C61.1152 30.4971 61.1557 30.5309 61.1783 30.5212C61.2022 30.5116 61.2093 30.4596 61.2248 30.4258ZM8.39875 25.2824C8.37968 25.2268 8.36657 25.164 8.35585 25.1652C8.30102 25.1676 8.2474 25.1857 8.19257 25.1978C8.20807 25.2329 8.2176 25.2933 8.23905 25.2981C8.28672 25.3078 8.34154 25.2896 8.39756 25.2836L8.39875 25.2824ZM45.8141 28.3126H45.8594V28.1326H45.8141V28.3126ZM36.6137 31.1C36.597 31.1241 36.5756 31.1471 36.5661 31.1749C36.5625 31.1833 36.5911 31.2171 36.6006 31.2159C36.6292 31.2099 36.6566 31.1918 36.684 31.1785C36.6614 31.1519 36.6387 31.1265 36.6149 31.1H36.6137ZM48.666 31.2679C48.666 31.251 48.666 31.2353 48.666 31.2184H48.4884C48.4884 31.2353 48.4884 31.251 48.4884 31.2679H48.666ZM39.3786 35.3203C39.3941 35.3203 39.4084 35.3203 39.4239 35.3203V35.1402C39.4084 35.1402 39.3941 35.1402 39.3786 35.1402V35.3215V35.3203ZM62.7634 34.3694C62.7944 34.3525 62.8242 34.3356 62.8551 34.3186C62.8385 34.2933 62.8241 34.2667 62.8039 34.2461C62.8003 34.2425 62.7598 34.2594 62.7586 34.2703C62.755 34.3029 62.761 34.3368 62.7634 34.3706V34.3694ZM42.3675 36.2071C42.3318 36.1962 42.3103 36.189 42.2877 36.1817C42.2913 36.1974 42.296 36.2119 42.2996 36.2276C42.3163 36.2228 42.3342 36.218 42.3675 36.2071ZM45.5853 34.5156C45.5496 34.5047 45.5281 34.4975 45.5055 34.4902C45.509 34.5059 45.5138 34.5204 45.5174 34.5361C45.5341 34.5313 45.5519 34.5265 45.5853 34.5156ZM52.0375 31.8623C52.0351 31.8925 52.0327 31.9227 52.0304 31.953C52.0423 31.9385 52.0613 31.9252 52.0625 31.9107C52.0637 31.895 52.047 31.878 52.0387 31.8623H52.0375ZM43.483 26.1294C43.4783 26.1124 43.4759 26.0919 43.4664 26.0786C43.4628 26.0738 43.4378 26.0859 43.4235 26.0895C43.4282 26.1064 43.4306 26.1269 43.4401 26.1402C43.4437 26.1451 43.4687 26.133 43.483 26.1294ZM48.206 31.2461C48.1762 31.2437 48.1464 31.2413 48.1166 31.2389C48.1309 31.251 48.144 31.2703 48.1583 31.2715C48.1738 31.2727 48.1905 31.2558 48.206 31.2474V31.2461ZM46.0489 31.2292C46.0322 31.2232 46.0143 31.2135 45.9977 31.2135C45.9917 31.2135 45.9869 31.2413 45.9822 31.2558C45.9989 31.2619 46.0167 31.2715 46.0334 31.2715C46.0394 31.2715 46.0441 31.2437 46.0489 31.2292ZM43.6654 29.5377C43.6487 29.5317 43.6308 29.522 43.6141 29.522C43.6082 29.522 43.6034 29.5498 43.5986 29.5643C43.6153 29.5704 43.6332 29.58 43.6499 29.58C43.6558 29.58 43.6606 29.5522 43.6654 29.5377Z" fill="#FB4E1E"/>
<path d="M104.414 30.579C104.501 30.701 104.589 30.8243 104.676 30.9463C104.709 31.0623 104.741 31.1795 104.773 31.2955L104.775 31.3027C104.914 31.6181 104.947 32.0856 105.493 31.8186C105.607 31.7135 105.722 31.6084 105.836 31.5045C105.88 31.5021 105.902 31.4791 105.902 31.4344C106.065 31.2653 106.227 31.0961 106.39 30.927C106.699 30.9064 107.009 30.8859 107.317 30.8653C107.317 30.8653 107.346 30.881 107.345 30.881C107.392 30.9427 107.44 31.0043 107.489 31.0647C107.501 31.1432 107.513 31.2218 107.524 31.3003C107.479 31.3015 107.435 31.3039 107.391 31.3051C107.364 31.3583 107.336 31.4115 107.31 31.4634C107.338 31.4501 107.365 31.438 107.394 31.4247C107.464 31.4247 107.533 31.4247 107.603 31.4247C107.612 31.5444 107.62 31.6628 107.628 31.7824C107.6 31.7908 107.571 31.7957 107.54 31.7957C107.524 31.9129 107.506 32.0301 107.489 32.146C107.489 32.3502 107.491 32.5532 107.491 32.7574C107.491 32.9592 107.491 33.1597 107.491 33.3615L107.531 33.3518C107.522 33.4715 107.514 33.5899 107.504 33.7095C107.446 33.759 107.386 33.8074 107.328 33.8569C107.267 33.8883 107.207 33.9197 107.146 33.9511C107.069 33.9886 106.994 34.0248 106.918 34.0623L106.526 34.3015C106.441 34.3426 106.358 34.3849 106.273 34.426C106.185 34.5528 106.096 34.6785 106.008 34.8053C106.028 34.9286 106.049 35.0506 106.07 35.1738C106.12 35.2935 106.171 35.4131 106.221 35.5327C106.208 35.6136 106.195 35.6934 106.182 35.7743C106.064 35.8504 105.944 35.9278 105.826 36.0039C105.792 36.0438 105.759 36.0824 105.724 36.1223C105.658 36.1332 105.593 36.144 105.529 36.1537C105.355 36.0679 105.182 35.9821 105.008 35.8976C104.939 35.8541 104.869 35.8106 104.8 35.7659C104.71 35.6112 104.619 35.4566 104.529 35.3007C104.561 34.9527 104.411 34.7836 104.061 34.8078L104.057 34.8029C103.822 34.2 103.648 34.8343 103.443 34.8331C103.212 34.9564 102.979 35.0796 102.748 35.2028C102.349 35.1859 101.948 35.169 101.549 35.1521C101.473 35.1581 101.397 35.1642 101.322 35.1702L101.312 35.1605C101.225 35.1267 101.137 35.0929 101.05 35.0603C100.899 35.0627 100.746 35.0651 100.595 35.0675C100.512 35.024 100.431 34.9805 100.349 34.9358C100.039 34.9612 99.677 34.5903 99.4267 35.0627C99.2944 35.146 99.1633 35.2282 99.031 35.3116C98.1205 35.3853 97.2088 35.4578 96.2983 35.5315C96.2268 35.5774 96.1541 35.6221 96.0826 35.668V35.6692C96.0385 35.6656 95.9932 35.662 95.9491 35.6571C95.7525 35.6511 95.5547 35.645 95.358 35.639C95.2841 35.6414 95.2102 35.645 95.1363 35.6475C94.9826 35.6644 94.8289 35.6777 94.6751 35.6982C94.5846 35.7103 94.4964 35.732 94.407 35.749C94.3236 35.7224 94.2413 35.6946 94.1579 35.668C93.369 35.8613 92.5812 36.109 91.7946 35.6608C91.5539 35.7417 91.312 35.8214 91.0712 35.9024H91.0724C90.989 35.8613 90.9056 35.8202 90.8234 35.7779V35.7816C90.8091 35.7284 90.7948 35.6752 90.7805 35.6221C90.7149 35.6752 90.6506 35.7284 90.585 35.7828C90.5063 35.6934 90.4277 35.6052 90.349 35.5158C90.1881 35.523 90.0273 35.5315 89.8664 35.5387C89.4111 35.5037 88.9559 35.4686 88.5006 35.4336C88.2432 35.5001 87.987 35.5677 87.7295 35.6342C87.5043 35.8782 87.2671 35.8384 87.0252 35.6632C86.7058 35.7864 86.3864 35.9084 86.067 36.0317C85.905 36.0607 85.7429 36.0897 85.5808 36.1187C85.5045 36.1187 85.4282 36.1187 85.3508 36.1187C85.3138 36.132 85.2769 36.1392 85.2388 36.1428L85.1148 36.2564L85.1065 36.2636C85.0648 36.2636 85.023 36.2636 84.9813 36.2636C84.6608 36.3301 84.3402 36.3966 84.0196 36.463C83.8635 36.3953 83.6907 36.057 83.5667 36.492L83.5548 36.5041C83.438 36.5391 83.3212 36.5742 83.2044 36.6092C83.1734 36.6273 83.1401 36.637 83.1043 36.6394C83.0507 36.5959 82.9982 36.5536 82.9446 36.5101C82.916 36.5101 82.8862 36.5125 82.8576 36.5162C82.8004 36.4884 82.7432 36.4594 82.686 36.4316L82.7277 36.7276L82.692 36.7481C82.5072 36.8267 82.3213 36.904 82.1366 36.9825L82.1259 36.9886C82.0448 36.9475 81.9638 36.9064 81.8816 36.8666C81.8101 36.9076 81.7397 36.9487 81.6682 36.9898C81.6241 37.0224 81.5801 37.0562 81.536 37.0889C81.5085 37.113 81.4764 37.1251 81.4406 37.1251C81.387 37.1215 81.3322 37.1179 81.2785 37.1142C81.244 37.113 81.2106 37.1058 81.1784 37.0925C81.1594 37.049 81.1403 37.0043 81.1224 36.9608C81.1057 37.0164 81.0902 37.0719 81.0736 37.1263C81.07 37.1638 81.0581 37.1988 81.0366 37.229L80.927 37.3438C80.8948 37.3498 80.8614 37.3547 80.8292 37.3595C80.7101 37.403 80.5921 37.4453 80.4729 37.4888C80.3537 37.5661 80.2357 37.6434 80.1166 37.7208C79.7864 37.4175 79.6732 37.7473 79.51 37.9322C79.274 38.0192 79.038 38.1062 78.8032 38.1932C78.404 37.8633 78.1919 38.2028 77.9511 38.4384C77.8737 38.4384 77.7962 38.4384 77.7199 38.4396C77.6055 38.5677 77.4923 38.6946 77.3779 38.8227C77.3302 38.8166 77.2837 38.8118 77.2361 38.8057C77.1562 38.7248 77.0776 38.645 76.9977 38.5641L77.0001 38.5593C76.8738 38.5206 76.7463 38.4807 76.6199 38.4421C76.5997 38.4493 76.5794 38.4481 76.5592 38.4421C76.4698 38.4783 76.3792 38.5146 76.2898 38.5496C76.2529 38.5641 76.2147 38.5665 76.1754 38.5568C76.0157 38.5967 75.8572 38.6366 75.6975 38.6765C75.6117 38.8372 75.5247 38.9978 75.4389 39.1585C75.5187 39.2383 75.5986 39.3168 75.6784 39.3966C75.6904 39.4316 75.6975 39.4666 75.7011 39.5041C75.7011 39.672 75.7011 39.84 75.7023 40.0091L75.7047 40.0055L75.5843 40.1251L75.5783 40.1299C75.539 40.1589 75.4997 40.1867 75.4603 40.2157C75.2613 40.2556 75.0623 40.2943 74.8621 40.3341C74.781 40.2967 74.6988 40.2604 74.6178 40.223C74.4211 40.1771 74.2924 39.7373 74.0231 40.1203C73.9778 40.1082 73.9313 40.0961 73.886 40.084C73.6846 40.0599 73.4832 40.0369 73.2818 40.0127C73.2472 40.0127 73.2151 40.0019 73.1853 39.9825C73.1507 39.9463 73.115 39.91 73.0804 39.875C73.0387 39.8339 72.9982 39.7941 72.9565 39.753C72.9529 39.6309 72.9481 39.5077 72.9445 39.3857L72.9374 39.3881C73.0601 39.3096 73.1841 39.231 73.3068 39.1513C73.345 39.0607 73.3617 38.9471 73.426 38.8819C73.8825 38.4155 73.6131 38.1231 73.2043 37.8512C73.0256 37.7316 72.8552 37.5999 72.68 37.4731C72.5632 37.2314 72.4464 36.9886 72.3296 36.7469C72.3403 36.6636 72.3522 36.5814 72.363 36.498C72.5191 36.4219 72.6764 36.3446 72.8325 36.2685C73.0303 35.8601 73.2282 35.4505 73.426 35.0421C73.5035 34.9962 73.5809 34.9503 73.6584 34.9032C73.6989 34.8694 73.7394 34.8367 73.78 34.8029C73.8193 34.6797 73.8586 34.5564 73.8979 34.4332C74.1363 34.1928 74.3735 33.9523 74.6118 33.7119C74.6929 33.6322 74.7751 33.5536 74.8561 33.4739C74.8668 33.4352 74.8776 33.3953 74.8883 33.3567C74.9586 33.2794 75.0289 33.2008 75.0992 33.1235C75.4234 32.7961 75.7488 32.4686 76.0729 32.1412C76.1051 32.0651 76.1373 31.989 76.1694 31.9129C76.1992 31.8452 76.2135 31.7582 76.2636 31.7111C76.7117 31.2906 77.1658 30.8774 77.6174 30.4606C77.9333 30.0184 78.2491 29.5762 78.5649 29.1352C78.7901 28.8476 79.0154 28.5613 79.2418 28.2737C79.4099 27.9922 79.5779 27.7107 79.7459 27.4292C79.9855 27.1827 80.225 26.9374 80.4646 26.691C80.542 26.5834 80.6195 26.4747 80.6969 26.3659C81.1319 25.8742 81.5681 25.3825 82.0031 24.8895L82.1151 24.6672C82.276 24.579 82.4357 24.4908 82.5966 24.4026C82.6371 24.3615 82.6765 24.3216 82.717 24.2806C82.7229 24.2455 82.7206 24.2117 82.7086 24.1791C82.8314 24.051 82.9542 23.9229 83.0769 23.7949C83.0829 23.7224 83.0876 23.6511 83.0936 23.5786C83.1996 23.4904 83.3069 23.4022 83.413 23.314C83.4618 23.1992 83.5095 23.0844 83.5584 22.9709C83.6883 22.8065 83.8182 22.6434 83.9481 22.4791C84.0172 22.4018 84.0863 22.3245 84.1554 22.2471C84.2389 22.0514 84.3223 21.8557 84.4057 21.6599C84.4427 21.6467 84.482 21.6394 84.5213 21.6358C84.5964 21.5911 84.6703 21.5452 84.7454 21.5005C84.7478 21.4594 84.7609 21.4219 84.7823 21.3881C84.8109 21.3555 84.8383 21.3228 84.8669 21.2914C84.9933 21.1634 85.1196 21.0353 85.2471 20.9072C85.2781 20.8637 85.3091 20.8202 85.3413 20.7767L85.3353 20.7816C85.4175 20.6185 85.4986 20.4554 85.5808 20.291C85.6261 20.1835 85.6702 20.076 85.7155 19.9696C85.986 19.792 86.2553 19.6144 86.5259 19.4368C86.6856 19.3547 86.8441 19.2725 87.0038 19.1891C87.0967 19.084 87.1897 18.9801 87.2826 18.875C87.4674 18.7046 87.6509 18.5343 87.8356 18.3651C88.0382 18.1199 88.2396 17.8758 88.4422 17.6305C88.5328 17.4058 88.6257 17.1823 88.7127 16.9564C88.7509 16.8573 88.7783 16.7534 88.8117 16.6519C88.8486 16.5818 88.8867 16.5105 88.9237 16.4405C89.3158 15.8388 89.7091 15.2371 90.1012 14.6366C90.1464 14.552 90.1917 14.4686 90.237 14.3841C90.212 14.3696 90.187 14.3551 90.1619 14.3406C90.1083 14.43 90.0547 14.5194 89.9998 14.61C89.8795 14.6076 89.7591 14.6064 89.6376 14.604C89.4421 14.6438 89.2455 14.6849 89.05 14.7248C88.6496 14.8069 88.2503 14.8879 87.8499 14.9701C87.8153 14.9121 87.7808 14.8541 87.7462 14.7973C87.7033 14.8637 87.6616 14.9314 87.6187 14.9978V14.9954C87.5782 15.028 87.5377 15.0607 87.496 15.0933C87.4602 15.1054 87.4233 15.1126 87.3851 15.1162C87.2588 15.1175 87.1337 15.1199 87.0073 15.1211L87.0026 15.1235C86.9597 15.0558 86.918 14.9882 86.875 14.9205C86.8417 14.9821 86.8095 15.0438 86.7761 15.1042C86.6987 15.1078 86.62 15.1114 86.5425 15.1138C86.3828 15.1815 86.222 15.2504 86.0623 15.318C85.98 15.3216 85.899 15.3241 85.8168 15.3277C85.781 15.3277 85.7441 15.3289 85.7083 15.3301C85.6749 15.347 85.6404 15.3567 85.6022 15.3591C85.5534 15.3591 85.5057 15.3591 85.4568 15.3579L85.4592 15.3615C85.3913 15.2842 85.321 15.138 85.2542 15.1392C84.9241 15.1489 84.5821 15.1525 84.271 15.2504C84.0863 15.3084 83.9528 15.5367 83.7955 15.6889C83.755 15.6901 83.7157 15.6914 83.6752 15.6938C83.5488 15.4304 83.3963 15.2407 83.0912 15.4811C83.0114 15.4449 82.9303 15.4098 82.8505 15.3736C82.7301 15.3603 82.6097 15.3458 82.4894 15.3325C82.4155 15.3422 82.3428 15.3531 82.2689 15.3627C82.1366 15.3615 82.0055 15.3603 81.8732 15.3579C81.7338 15.4413 81.5944 15.5258 81.4537 15.6092C81.4013 15.6479 81.3488 15.6853 81.2964 15.724H81.3036C81.2237 15.8448 81.1439 15.9644 81.064 16.0852L81.0592 16.0877C80.7792 16.2411 80.5003 16.3945 80.2202 16.548C80.1773 16.548 80.1356 16.548 80.0927 16.548C79.74 16.5625 79.3872 16.5782 79.0344 16.5927C78.9641 16.6265 78.8938 16.6616 78.8235 16.6954C78.7341 16.7328 78.6447 16.7703 78.5554 16.8077L78.553 16.8102C78.3528 16.8742 78.1537 16.9394 77.9535 17.0035C77.9154 17.0192 77.876 17.0349 77.8379 17.0506L77.4816 17.1388C77.366 17.0639 77.2516 16.989 77.136 16.9129C77.0811 16.8343 77.0299 16.6942 76.9703 16.6893C76.6616 16.6688 76.3518 16.6833 76.0419 16.6845L76.0395 16.6821C75.8846 16.6748 75.7285 16.6664 75.5736 16.6591C75.4151 16.6688 75.2577 16.6785 75.0992 16.6869C74.9705 16.6072 74.8418 16.5274 74.7119 16.4477C74.6786 16.4525 74.6464 16.4501 74.6142 16.4392C74.5773 16.3982 74.5403 16.3571 74.5022 16.3148C74.4819 16.2894 74.4748 16.2604 74.4807 16.2278C74.4879 15.7566 74.3925 15.3651 73.8193 15.3398C73.861 15.1984 73.9015 15.0558 73.9408 14.9253C73.7394 14.8541 73.5762 14.7973 73.4129 14.7393C73.4427 14.6136 73.4725 14.4868 73.5023 14.3611C73.5857 14.4179 73.6691 14.4735 73.8562 14.5991C73.8098 14.3249 73.7835 14.1618 73.7561 13.9999L73.7597 14.0071C73.7669 13.8512 73.7752 13.6942 73.7823 13.5383L73.1865 13.5359C73.1054 13.5456 73.0256 13.554 72.9445 13.5637L72.9469 13.5214L72.8206 12.6781C72.9588 12.1839 73.339 12.0897 73.7728 12.0836C73.9325 12.051 74.0922 12.0184 74.2519 11.9858C74.4521 11.8746 74.6511 11.7647 74.8514 11.6535C74.9288 11.6269 75.0075 11.6015 75.0849 11.575C75.3269 11.575 75.5676 11.575 75.8095 11.575C75.8739 11.5436 75.9394 11.5121 76.0038 11.4807C76.0753 11.3998 76.1468 11.3188 76.2195 11.2379C76.2827 11.2379 76.3458 11.2379 76.409 11.2379C76.6855 11.0023 76.962 10.7655 77.2373 10.5299C77.2754 10.5274 77.3147 10.5262 77.3529 10.5238C77.5519 10.5226 77.7509 10.5214 77.9511 10.519L78.3063 10.5166C78.901 10.1904 79.4945 9.86413 80.0892 9.53791C80.2941 9.45938 80.5003 9.38085 80.7053 9.30231C81.1069 9.10537 81.5097 8.90843 81.9114 8.71029C82.0627 8.62329 82.2153 8.5363 82.3666 8.45052C82.4047 8.46139 82.4441 8.47106 82.4822 8.48193C82.518 8.47227 82.5537 8.46139 82.5907 8.45173L82.5895 8.45294C82.7015 8.42394 82.8135 8.39373 82.9255 8.36474C83.1389 8.27412 83.3522 8.18471 83.5643 8.0941C83.5977 8.05906 83.6311 8.02523 83.6644 7.99019L83.674 7.97327C83.9088 7.88991 84.1447 7.80654 84.3795 7.72438C84.4617 7.69538 84.5452 7.66639 84.6274 7.63618C84.6643 7.62531 84.7013 7.61323 84.7382 7.60235C84.7752 7.5649 84.8121 7.52865 84.8491 7.4912C85.0314 7.44528 85.4366 7.6531 85.2233 7.1541C85.4604 7.1541 85.6976 7.1541 85.9347 7.15289C85.9908 7.28942 86.048 7.42595 86.1087 7.57335C86.3316 7.47428 86.502 7.39937 86.6462 7.33534C86.5604 7.18431 86.4865 7.05261 86.4115 6.92092C86.4436 6.90038 86.4782 6.8883 86.5163 6.88709C86.7201 6.77472 86.9227 6.66236 87.1265 6.55C87.3303 6.43401 87.5341 6.31681 87.7379 6.20082C87.8463 6.20082 87.9548 6.20082 88.0644 6.20082C88.273 6.08242 88.4815 5.96522 88.6889 5.84681C88.7628 5.80573 88.8379 5.76345 88.9118 5.72237C88.9582 5.71029 89.0035 5.6982 89.0488 5.68612C89.3229 5.65712 89.6793 5.80211 89.7472 5.34299C90.4539 5.04335 91.1582 4.73526 91.8685 4.44649C92.1879 4.316 92.5204 4.22176 92.8458 4.11061C92.9626 4.06711 93.0806 4.02362 93.1985 3.97891C93.3952 3.86051 93.593 3.7421 93.7896 3.6237C93.8707 3.59228 93.9529 3.56208 94.034 3.53066C94.1079 3.48354 94.1806 3.43763 94.2544 3.39051C94.3391 3.3446 94.4237 3.29869 94.5083 3.25277C94.9469 3.09691 95.3854 2.94105 95.824 2.7852C95.9026 2.74774 95.9813 2.70908 96.06 2.67162L96.0719 2.66075C96.1374 2.4916 96.2042 2.32245 96.2697 2.15209L96.2733 2.14726C96.3543 2.15813 96.4342 2.16901 96.5152 2.17867C96.6547 2.50126 96.8704 2.3454 97.0038 2.21371C97.2362 1.98536 97.4233 1.70988 97.6295 1.45374C97.701 1.41749 97.7737 1.38125 97.8452 1.345C98.198 1.32567 98.5519 1.27734 98.9023 1.29426C99.6198 1.32809 99.8962 0.672025 100.382 0.349432C101.431 -0.345292 102.442 -0.0166577 102.859 1.20002C102.89 1.29184 102.95 1.37279 102.995 1.45857C102.978 1.57819 102.963 1.69659 102.946 1.81621C102.88 1.91165 102.815 2.0071 102.749 2.10255C102.705 2.17021 102.66 2.23787 102.616 2.30553C102.487 2.3442 102.358 2.38165 102.23 2.42031C102.084 2.51576 101.939 2.61121 101.794 2.70666C101.751 2.89393 101.707 3.08242 101.664 3.26969C101.677 3.4775 101.69 3.68532 101.703 3.89313C101.729 3.96804 101.757 4.04416 101.783 4.11906C101.618 4.62652 101.142 5.06268 101.43 5.67525L101.547 6.03892V6.04013C101.621 6.08121 101.696 6.1235 101.77 6.16457L101.783 6.17303C101.827 6.20686 101.871 6.24069 101.916 6.27452C101.993 6.32406 102.068 6.3748 102.144 6.42434C102.262 6.45696 102.379 6.48838 102.497 6.521C102.54 6.55604 102.584 6.59107 102.627 6.62611C102.58 6.98858 102.535 7.35104 102.488 7.7123L102.501 7.75217C102.451 7.76304 102.401 7.77392 102.351 7.78479C102.364 7.76304 102.372 7.7413 102.376 7.71592C102.264 7.69538 102.153 7.67364 102.041 7.6531C101.985 7.6531 101.929 7.65551 101.872 7.65551L101.822 7.64706C101.766 7.59027 101.709 7.53228 101.653 7.47549C101.498 7.48636 101.343 7.49724 101.189 7.50811C101.102 7.66518 101.014 7.82225 100.927 7.98052C100.927 8.13759 100.927 8.29587 100.927 8.45294C100.927 8.49643 100.927 8.53993 100.927 8.58463C100.856 8.74774 100.783 8.91085 100.711 9.07517C100.711 9.11383 100.704 9.15129 100.691 9.18753C100.659 9.22982 100.627 9.2709 100.596 9.31319V9.31077C100.556 9.39414 100.516 9.4775 100.475 9.56208C100.472 9.59349 100.468 9.6237 100.465 9.65511C100.342 9.82184 100.219 9.98858 100.096 10.1553C100.063 10.1976 100.031 10.2399 99.9975 10.281L100.002 10.2761C99.9618 10.3088 99.9201 10.3426 99.8796 10.3752C99.5304 11.082 99.186 11.79 98.8272 12.492C98.7819 12.5802 98.6604 12.6273 98.5746 12.6926C98.5245 12.7699 98.4745 12.8472 98.4244 12.9245C98.3803 13.0864 98.372 13.2737 98.2838 13.4066C97.906 13.9829 97.5056 14.5423 97.1147 15.109C97.0849 15.1513 97.0551 15.1948 97.0241 15.2371V15.2334C96.9824 15.2697 96.9395 15.3047 96.8966 15.341C96.8084 15.5053 96.7214 15.6696 96.6332 15.8351C96.6034 15.8653 96.5736 15.8955 96.5426 15.9258C96.1768 16.2193 95.8097 16.5117 95.4438 16.8053C95.476 17.0687 95.5082 17.3321 95.5403 17.5955C95.6345 17.4529 95.7287 17.3104 95.8228 17.1678C95.9885 17.2451 96.1529 17.3224 96.3186 17.3998C96.3019 18.1549 95.6524 18.5234 95.3187 19.084C95.2651 19.0695 95.2114 19.0562 95.1578 19.0417C95.1649 19.0913 95.1733 19.1396 95.1804 19.1891C95.1173 19.3208 95.0553 19.4513 94.9921 19.583C94.9528 19.612 94.9135 19.641 94.8754 19.67C94.8348 19.6857 94.7943 19.7014 94.755 19.7171L94.6227 19.6688C94.5452 19.641 94.4678 19.612 94.3903 19.5842L94.3855 19.577C94.3462 19.5383 94.3081 19.4997 94.2687 19.4622C93.9505 19.2218 93.674 19.0913 93.5144 19.6374C93.4571 19.8355 93.2975 20.0023 93.1842 20.1835C93.0722 20.3079 92.9614 20.4336 92.8505 20.5581C92.8255 20.8988 92.8553 21.2564 92.7612 21.5766C92.6682 21.8943 92.6956 22.368 92.1665 22.3752C92.0771 22.4018 91.9865 22.4284 91.8971 22.4562C91.8626 22.4707 91.8256 22.4791 91.7887 22.4827C91.7458 22.5601 91.7029 22.6362 91.66 22.7135L91.6493 22.7232C91.6171 22.7691 91.5849 22.815 91.5515 22.8609C91.4586 22.9914 91.3668 23.1207 91.2738 23.2512C91.1642 23.3539 91.0546 23.4566 90.9449 23.5593L90.9366 23.575C90.9104 23.5774 90.8853 23.5846 90.8615 23.5931C90.734 23.6801 90.6076 23.7683 90.4801 23.8553C90.1298 24.6467 89.5458 25.2085 88.8069 25.6205C88.7247 25.7848 88.6424 25.9491 88.5602 26.1134C88.5245 26.1497 88.4887 26.1859 88.4517 26.2234C88.4088 26.3031 88.3648 26.3841 88.3219 26.4638C88.2825 26.5013 88.2432 26.5375 88.2039 26.575C88.0763 26.7006 87.9476 26.8251 87.8201 26.9507C87.7879 27.0232 87.7546 27.0957 87.7224 27.167C87.4113 27.3821 87.0991 27.5971 86.788 27.8122C86.8012 27.869 86.8131 27.927 86.8262 27.9837C87.0872 27.9656 87.3482 27.9487 87.6092 27.9306C87.7641 27.9306 87.9202 27.9306 88.0752 27.9306C88.3159 27.9185 88.5554 27.9052 88.7962 27.8931C88.9153 27.8931 89.0345 27.8931 89.1537 27.8931C89.2681 27.898 89.3837 27.9028 89.4981 27.9088C89.547 27.9088 89.5946 27.9088 89.6435 27.9088C89.7162 27.91 89.7889 27.9113 89.8604 27.9125C90.1858 27.9511 90.5123 27.9898 90.8377 28.0285C90.9556 28.0176 91.0736 28.0079 91.1916 27.997C91.2309 27.9705 91.2703 27.9439 91.3108 27.9185L91.3084 27.9258C91.505 27.875 91.7017 27.8255 91.8983 27.7747C91.9388 27.8158 91.9806 27.8581 92.0211 27.8992C92.1379 27.9439 92.2559 27.9874 92.3727 28.0321L92.4251 28.0272H92.4775C92.6003 28.0369 92.723 28.0466 92.8458 28.0574C92.8875 28.055 92.9292 28.0538 92.9709 28.0514C93.1676 28.0514 93.3642 28.0526 93.562 28.0538C93.9565 28.0502 94.3498 28.0466 94.7443 28.0429C94.96 28.1215 95.1721 28.2423 95.3938 28.2677C95.7751 28.31 96.1625 28.2906 96.5486 28.2979C96.663 28.3003 96.7774 28.3039 96.893 28.3063C96.9776 28.3075 97.0634 28.3088 97.148 28.3112C97.3888 28.3788 97.6295 28.4465 97.8703 28.5129C98.1825 28.5238 98.4947 28.5347 98.8058 28.5444C98.8856 28.583 98.9643 28.6217 99.0441 28.6603C99.0858 28.6603 99.1276 28.6579 99.1693 28.6579C99.2968 28.6881 99.4255 28.7195 99.553 28.7498C99.8259 28.7304 100.098 28.7111 100.371 28.6906C100.424 28.734 100.478 28.7788 100.533 28.8222C100.555 28.7751 100.577 28.7292 100.599 28.6821C100.64 28.7038 100.68 28.7256 100.721 28.7473C101.018 29.2137 101.519 28.9986 101.921 29.1171C102.118 29.1509 102.314 29.1847 102.511 29.2185C102.6 29.262 102.69 29.3067 102.778 29.3502C102.845 29.3611 102.913 29.3708 102.979 29.3817L103.594 29.5979C103.824 29.604 104.055 29.6112 104.286 29.6173C104.34 29.7381 104.395 29.8577 104.45 29.9785C104.383 30.0172 104.318 30.0558 104.251 30.0945C104.225 30.1332 104.2 30.1718 104.173 30.2105C104.178 30.2467 104.183 30.2842 104.187 30.3204L104.178 30.3132C104.219 30.3567 104.26 30.4002 104.301 30.4437L104.295 30.4376C104.334 30.4811 104.373 30.5246 104.411 30.5681L104.414 30.579ZM104.338 34.3837C104.321 34.3523 104.303 34.3208 104.287 34.2906C104.262 34.3075 104.235 34.322 104.215 34.3426C104.212 34.3462 104.228 34.3873 104.239 34.3885C104.271 34.3933 104.305 34.3861 104.339 34.3837H104.338Z" fill="#FB4E1E"/>
<path d="M57.3446 5.0922C57.8452 4.9158 58.1753 5.14174 58.304 5.60448C58.4303 6.05998 58.683 6.47923 58.8808 6.91419C59.1954 7.59925 59.5101 8.2831 59.8259 8.96816C59.9963 9.56502 60.5385 10.058 60.3157 10.7648C60.1584 10.8542 60.0011 10.9436 59.8437 11.033C59.721 11.1019 59.5982 11.1707 59.4755 11.2384C59.28 11.2903 59.0846 11.3423 58.8903 11.393L58.4124 11.5139C58.0966 11.5562 57.7808 11.5972 57.4638 11.6395C56.3853 11.8812 55.3067 12.124 54.2282 12.3657C53.9529 12.4043 53.6776 12.4418 53.4023 12.4804C53.2032 12.4406 53.0042 12.4007 52.8064 12.3608C52.7718 12.3463 52.7373 12.3379 52.7003 12.3355C52.6217 12.1337 52.543 11.9319 52.4632 11.7313C52.4238 11.5707 52.3833 11.4088 52.344 11.2481C52.2641 11.0874 52.1855 10.9267 52.1056 10.766C52.0866 10.6838 52.0675 10.6017 52.0484 10.5183C52.0246 10.4386 51.9996 10.36 51.9757 10.2803C51.8768 10.0157 51.7791 9.75229 51.6802 9.48769C51.5622 8.92345 51.4442 8.35922 51.2881 7.61012C51.6861 7.78652 51.8887 7.87593 52.0901 7.96534C52.3881 8.10066 52.6789 8.26498 52.9899 8.3568C53.0996 8.38942 53.3761 8.25048 53.3796 8.1804C53.4154 7.43251 53.4118 6.68221 53.419 5.93191C53.5179 5.46554 53.6549 5.004 53.7026 4.5328C53.7395 4.16912 53.6621 3.79337 53.6347 3.42245C53.7538 3.26296 53.8742 3.10348 54.0148 2.9162H53.5429V2.35076C53.8456 2.3133 54.1626 2.17798 54.2448 2.66127C54.3414 3.05152 54.2699 3.54931 54.8467 3.63268C54.8181 3.72208 54.7883 3.81149 54.7597 3.9009C54.83 3.89244 54.8991 3.88519 54.9694 3.87674C55.1268 4.03985 55.2853 4.20295 55.4426 4.36606C55.9407 5.10912 56.4389 5.85338 56.937 6.59643C56.9835 6.56743 57.0312 6.53844 57.0777 6.50944C57.1265 6.15906 57.1742 5.80867 57.2231 5.45829L57.2243 5.45587C57.2648 5.33505 57.3053 5.21423 57.3458 5.09341L57.3446 5.0922ZM52.4143 9.28954C52.3988 9.28954 52.3845 9.28954 52.369 9.28954V9.47078C52.3845 9.47078 52.3988 9.47078 52.4143 9.47078V9.28954Z" fill="#FB4E1E"/>
<path d="M63.9007 12.2217C63.7649 11.3917 64.5288 11.3796 64.9459 11.1754C65.4715 10.918 65.8052 10.6933 65.6919 10.0493C65.6669 9.90676 65.7968 9.7364 65.8564 9.57812C65.9911 9.66632 66.1436 9.73519 66.2556 9.84514C66.7407 10.32 67.2043 10.8178 67.6965 11.2841C67.8419 11.4219 68.0528 11.4883 68.2483 11.5958C68.2733 11.7843 68.3019 12.0006 68.3305 12.2157C68.3663 12.4585 68.402 12.7014 68.4378 12.9442C68.4294 13.3127 68.5224 13.7344 67.9897 13.7924C68.0874 14.0884 68.1744 14.3494 68.2602 14.6116C68.0004 14.6333 67.7418 14.6563 67.482 14.678C67.6107 14.9112 67.7573 15.0441 67.9277 15.0985C68.6547 15.328 68.9002 15.9454 68.5343 16.6764C68.377 16.8008 68.2209 16.9253 68.0635 17.0485C67.9503 17.1186 67.774 17.1645 67.737 17.2636C67.65 17.4968 67.6286 17.7541 67.5809 18.003C67.3163 18.0864 67.0506 18.1697 66.786 18.2531C66.3784 18.4102 65.9708 18.566 65.562 18.7231C65.4774 18.6567 65.3916 18.589 65.307 18.5225V18.5201C65.1235 18.3063 64.9781 18.032 64.7516 17.8919C64.4644 17.713 64.1117 17.643 63.7863 17.5258L63.7458 17.5366C63.7148 17.4956 63.6826 17.4545 63.6517 17.4134C63.4967 17.1645 63.3418 16.9156 63.1869 16.6679C63.1785 16.2306 63.1702 15.7932 63.1606 15.3558C63.1761 15.3244 63.1833 15.2906 63.1833 15.2555C63.2119 15.2096 63.2405 15.1637 63.2691 15.119C63.4705 14.7408 63.6469 14.3457 63.884 13.9917C64.0282 13.7779 64.1748 13.6244 63.9091 13.4178C63.9055 13.0191 63.9019 12.6192 63.8983 12.2205L63.9007 12.2217Z" fill="#FB4E1E"/>
<path d="M64.3665 38.2143C64.4844 38.2916 64.6024 38.3701 64.7204 38.4474C64.842 38.5163 64.9635 38.5864 65.0851 38.6553C65.1614 38.6673 65.2376 38.6806 65.3139 38.6927C65.3961 38.7604 65.4796 38.8292 65.5618 38.8969C65.6464 38.9187 65.7298 38.9404 65.8144 38.9621C65.8478 38.9936 65.88 39.025 65.9134 39.0564C65.874 39.4116 66.1005 39.3029 66.2816 39.2727C66.3209 39.2799 66.3591 39.2751 66.396 39.2582C66.595 39.3137 66.7953 39.3693 66.9943 39.4237C67.0241 39.4551 67.0539 39.4853 67.0837 39.5167C67.1719 39.6786 67.26 39.8405 67.3482 40.0024C67.589 40.3758 67.8297 40.7503 68.0704 41.1236C68.1455 41.1212 68.2206 41.12 68.2969 41.1176C68.3803 41.1091 68.4625 41.1007 68.546 41.0922C68.6282 41.0898 68.7092 41.0874 68.7915 41.0862C68.8284 41.0886 68.863 41.0971 68.8975 41.1116L68.9083 41.4801C68.8749 41.5151 68.8427 41.5501 68.8105 41.5864C68.7605 41.6492 68.7104 41.712 68.6604 41.7749C68.5877 42.0709 68.515 42.3657 68.4423 42.6617C68.4339 42.8188 68.4256 42.977 68.4161 43.1341C68.3779 43.1788 68.341 43.2235 68.3028 43.2682C68.2242 43.3141 68.1443 43.3613 68.0657 43.4072L67.8178 43.3504C67.6164 43.2851 67.4162 43.2187 67.2148 43.1534C67.1409 43.1595 67.067 43.1655 66.9931 43.1728C66.9121 43.1571 66.8298 43.1426 66.7488 43.1269C66.6785 43.093 66.6082 43.0592 66.5366 43.0254L66.5092 43.0085C66.4318 43.0145 66.3555 43.0193 66.278 43.0254C66.2435 43.0701 66.2089 43.1136 66.1755 43.1583C65.9658 43.1885 65.756 43.2199 65.5463 43.2501C65.3556 43.3033 65.1649 43.3564 64.9731 43.4108C64.9302 43.4446 64.8873 43.4785 64.8444 43.5135C64.6882 43.5135 64.5321 43.5135 64.3772 43.5123C64.3402 43.5014 64.3045 43.4905 64.2675 43.4797C64.4904 43.3697 64.7407 43.2731 64.4785 42.9601C64.2461 42.9348 64.0137 42.9106 63.7813 42.8852C63.5787 42.7366 63.3749 42.5892 63.1723 42.4406C63.046 42.4019 62.9197 42.3621 62.7933 42.3234C62.7719 42.3391 62.748 42.3439 62.7218 42.3355C62.6289 42.2872 62.5359 42.2388 62.4418 42.1917C62.3285 42.1808 62.2165 42.17 62.1033 42.1591C62.1033 41.8051 61.9412 41.6915 61.6159 41.8256C61.3811 41.6939 61.1463 41.5622 60.9103 41.4305C60.8329 41.3605 60.7554 41.2892 60.6779 41.2191L60.6684 41.2106L60.56 41.1889C60.5206 41.201 60.4801 41.2143 60.4408 41.2263C60.3562 41.1841 60.2716 41.1418 60.1869 41.0983C59.8723 41.0137 59.5565 40.9291 59.2419 40.8445C59.1465 40.8143 59.05 40.7841 58.9547 40.7539C58.8915 40.6996 58.8295 40.6452 58.7664 40.5908C58.5566 40.522 58.3481 40.4543 58.1383 40.3854C58.1169 40.3975 58.093 40.4023 58.068 40.3975C57.975 40.3516 57.8821 40.3045 57.7891 40.2586C57.6819 40.2574 57.5734 40.2549 57.4661 40.2537H57.3243C57.2886 40.2489 57.254 40.2453 57.2183 40.2392C57.198 40.1897 57.1789 40.1389 57.1587 40.0894C57.0967 40.1462 57.0347 40.203 56.9728 40.2598C56.6546 40.2694 56.2732 40.3951 56.0313 40.2622C55.607 40.0278 55.2149 39.8164 54.7215 39.8901C54.5952 39.9311 54.4701 39.971 54.3437 40.0121C54.1161 40.0121 53.8897 40.0133 53.662 40.0145C53.5333 40.0532 53.4046 40.0918 53.2759 40.1305C53.2032 40.1377 53.1317 40.1438 53.059 40.151C52.9029 40.0205 52.748 39.8901 52.5239 39.7016C52.5466 39.971 52.5573 40.1027 52.568 40.2332C52.4846 40.2114 52.4024 40.1897 52.3189 40.1679C52.2176 40.1619 52.1163 40.1559 52.0162 40.1498C51.723 40.1849 51.4299 40.2199 51.1355 40.2561C51.0998 40.2501 51.064 40.2489 51.0271 40.2525C50.9067 40.2839 50.7863 40.3153 50.666 40.3456C50.3466 40.3528 50.0272 40.3601 49.7078 40.3685C49.591 40.4156 49.4754 40.464 49.3586 40.5111C49.2787 40.5449 49.1989 40.5787 49.119 40.6126C49.0297 40.5135 48.9391 40.4156 48.8151 40.2791C48.7043 40.4398 48.6102 40.5775 48.5148 40.7153C48.4791 40.7286 48.4433 40.737 48.4064 40.7418C48.3587 40.6996 48.3122 40.6573 48.2646 40.615C48.1239 40.6198 47.9833 40.6247 47.8427 40.6307L47.4375 40.4978H47.4387C47.2825 40.4893 47.1276 40.4797 46.9715 40.4712C46.8487 40.5304 46.7236 40.5872 46.602 40.6488C46.1265 40.8893 46.092 41.1901 46.496 41.5659C45.9764 42.1796 45.9192 42.1881 45.4162 41.7181C45.1755 41.7435 44.936 41.77 44.6952 41.7954C44.582 41.7181 44.47 41.6408 44.3568 41.5634L44.4581 40.9678C44.924 40.6609 44.6893 40.3359 44.4819 40.0109C44.4652 39.977 44.4581 39.9408 44.4593 39.9021C44.3854 39.8151 44.3115 39.7294 44.2376 39.6424L44.1971 39.652C44.1673 39.5928 44.1375 39.5336 44.1077 39.4744C44.029 39.3717 43.9492 39.2678 43.8705 39.1651C43.8288 39.124 43.7883 39.083 43.7466 39.0419C43.7466 38.9609 43.7466 38.8788 43.7466 38.7978C43.8658 38.6698 44.0219 38.5598 44.0946 38.4088C44.1768 38.2372 44.1851 38.0294 44.2257 37.8373C44.4092 37.789 44.6547 37.801 44.7679 37.6839C45.3626 37.0592 46.0932 36.8055 46.9214 36.7306C47.2158 36.704 47.5006 36.5795 47.7902 36.501C48.0286 36.4321 48.2681 36.3633 48.5065 36.2956C49.0654 36.2437 49.6244 36.1917 50.1845 36.1398C50.2619 36.1071 50.3394 36.0745 50.4169 36.0407C50.4514 36.0226 50.4872 36.0129 50.5253 36.0093C50.5825 36.0056 50.6409 36.0008 50.6981 35.9972C51.2368 35.9223 51.7755 35.8486 52.313 35.7737C52.5144 35.7737 52.7158 35.7737 52.9172 35.7737C52.9541 35.7737 52.9899 35.7737 53.0268 35.7737C53.1901 35.7422 53.3522 35.7096 53.5155 35.6782C53.7872 35.7084 54.0577 35.7386 54.3294 35.7676C54.4152 35.7386 54.5022 35.7096 54.588 35.6806C54.8824 35.4668 55.1827 35.3786 55.5033 35.6275C55.6809 36.0685 55.9955 35.8111 56.2649 35.7821C56.3411 35.7459 56.4186 35.7096 56.4949 35.6734C56.5223 35.6516 56.5533 35.642 56.5878 35.6468C56.6403 35.6504 56.6927 35.6541 56.7451 35.6565C56.844 35.6516 56.943 35.6468 57.0431 35.642C57.1384 35.613 57.2338 35.584 57.3291 35.5562C57.4113 35.5369 57.4948 35.5175 57.577 35.4982C57.7307 35.5659 57.8845 35.6323 58.037 35.7C58.1526 35.8123 58.2694 35.9247 58.385 36.0371C58.553 36.2038 58.7223 36.3705 58.8903 36.5385C58.9284 36.5675 58.9666 36.5965 59.0047 36.6255C59.0858 36.6339 59.168 36.6436 59.249 36.652C59.4552 36.6798 59.6614 36.7088 59.8687 36.7366C60.2739 36.7717 60.7101 37.1438 61.0665 36.6279C61.1284 36.5699 61.1904 36.5131 61.2524 36.4551C61.2941 36.4394 61.3358 36.4225 61.3775 36.4068C61.3847 36.4998 61.3918 36.5916 61.399 36.6847C61.4681 36.7463 61.536 36.8079 61.6039 36.8695C61.9531 37.0991 62.2821 37.3733 62.6551 37.5497C63.2081 37.8095 63.792 38.0004 64.3629 38.2203L64.3665 38.2143Z" fill="#FB4E1E"/>
<path d="M61.9961 47.0137C61.9485 47.1261 61.9008 47.2373 61.8531 47.3496C61.7768 47.4342 61.6994 47.5188 61.6231 47.6033C61.5433 47.6843 61.4634 47.7652 61.3836 47.8462C61.3418 47.88 61.2989 47.9126 61.2572 47.9465C61.1821 47.9646 61.1083 47.9815 61.0332 47.9996C60.7996 47.9018 60.5648 47.8039 60.3312 47.706C60.2979 47.6722 60.2645 47.6384 60.2311 47.6033C60.2919 47.3508 60.3586 47.0995 60.4123 46.8458C60.4504 46.6658 60.5517 46.4169 60.4754 46.3154C60.3884 46.1994 60.1262 46.1571 59.9534 46.1801C59.5947 46.2272 59.2455 46.3383 58.8916 46.4241C58.6926 46.4652 58.4935 46.5063 58.2945 46.5474C57.2767 46.1305 56.259 45.7149 55.3187 45.3307C55.0684 45.3428 54.8741 45.373 54.6835 45.3585C54.0971 45.3126 53.512 45.2509 52.9268 45.1954C52.729 45.1966 52.5311 45.1978 52.3333 45.199C52.0926 45.0033 51.853 44.8075 51.6123 44.6118C51.5444 44.3762 52.0497 44.0282 51.4741 43.8929L51.4764 43.8965C51.4824 43.8035 51.4872 43.7105 51.4919 43.6186C51.4538 43.5353 51.4157 43.4507 51.3775 43.3673C51.3775 43.2924 51.3751 43.2187 51.3739 43.1438L51.3728 43.145C51.3406 43.0653 51.3072 42.9855 51.275 42.9058C51.0951 42.3887 50.871 41.9175 50.2608 41.7979C50.1869 41.7834 50.1357 41.6577 50.0737 41.584C50.554 41.4608 51.0343 41.34 51.5146 41.2143C51.6826 41.1708 51.8459 41.1068 52.0151 41.0693C52.3095 41.0029 52.6074 40.9509 52.928 40.9884C53.3511 40.5691 53.8266 40.5945 54.4249 40.6875C55.0958 40.7902 55.8001 40.696 56.4568 40.9521C57.1325 41.2167 57.7999 41.5055 58.4745 41.7725C58.5948 41.8208 58.7378 41.8124 58.8701 41.8305C59.2324 42.0661 59.5816 42.472 59.9594 42.501C60.8556 42.5711 61.1821 43.3311 61.753 43.789C61.8007 43.8277 61.7625 44.0101 61.7304 44.114C61.523 44.7701 61.7602 45.0999 62.4538 45.2159C62.7136 45.2594 62.9495 45.4467 63.1974 45.5687C63.1998 45.6485 63.201 45.7282 63.2034 45.8091C63.2034 45.849 63.201 45.8889 63.1998 45.9288C63.1974 45.9747 63.195 46.0194 63.1926 46.0641C62.9912 46.1499 62.7886 46.2344 62.5872 46.3202C62.1284 46.3238 61.9377 46.5619 61.9997 47.0162L61.9961 47.0137Z" fill="#FB4E1E"/>
</g>
<defs>
<clipPath id="clip0_41_4345">
<rect width="107" height="48" fill="white" transform="translate(0.627441)"/>
</clipPath>
</defs>
</svg>
